{"asset":{"version":"2.0","generator":"Blockbench 4.11.1 glTF exporter"},"scenes":[{"nodes":[14],"name":"blockbench_export"}],"scene":0,"nodes":[{"translation":[0.0125,0.16875000000000007,0],"name":"link","mesh":0},{"rotation":[0,0,0.3826834323650898,0.9238795325112867],"translation":[-0.043750000000000004,0.16250000000000003,0],"name":"bullet","mesh":1},{"rotation":[0,0,0.3826834323650898,0.9238795325112867],"translation":[-0.025,0.15000000000000002,0],"name":"bullet","mesh":2},{"rotation":[0,0,0.3826834323650898,0.9238795325112867],"translation":[-0.006249999999999999,0.16250000000000003,0],"name":"bullet","mesh":3},{"rotation":[0,0,0.3826834323650898,0.9238795325112867],"translation":[0.012500000000000004,0.16250000000000003,0],"name":"bullet","mesh":4},{"translation":[0,-0.05,0],"name":"bullets","children":[0,1,2,3,4]},{"rotation":[0,0,0.3826834323650898,0.9238795325112867],"translation":[-0.006249999999999999,0.16250000000000003,0],"name":"bullet","mesh":5},{"translation":[0.012500000000000004,0.16875000000000004,0],"name":"link","mesh":6},{"rotation":[0,0,0.3826834323650898,0.9238795325112867],"translation":[-0.043750000000000004,0.16250000000000003,0],"name":"bullet","mesh":7},{"rotation":[0,0,0.3826834323650898,0.9238795325112867],"translation":[-0.025,0.16250000000000003,0],"name":"bullet","mesh":8},{"rotation":[0,0,0.3826834323650898,0.9238795325112867],"translation":[0.012500000000000004,0.16250000000000003,0],"name":"bullet","mesh":9},{"translation":[0.006249999999999999,-0.09375000000000003,0],"name":"bullets2","children":[6,7,8,9,10]},{"name":"box","mesh":10},{"rotation":[0,-1,0,6.123233995736766e-17],"name":"root","children":[5,11,12]},{"children":[13]}],"bufferViews":[{"buffer":0,"byteOffset":0,"byteLength":288,"target":34962,"byteStride":12},{"buffer":0,"byteOffset":288,"byteLength":288,"target":34962,"byteStride":12},{"buffer":0,"byteOffset":576,"byteLength":192,"target":34962,"byteStride":8},{"buffer":0,"byteOffset":768,"byteLength":72,"target":34963},{"buffer":0,"byteOffset":840,"byteLength":576,"target":34962,"byteStride":12},{"buffer":0,"byteOffset":1416,"byteLength":576,"target":34962,"byteStride":12},{"buffer":0,"byteOffset":1992,"byteLength":384,"target":34962,"byteStride":8},{"buffer":0,"byteOffset":2376,"byteLength":132,"target":34963},{"buffer":0,"byteOffset":2508,"byteLength":576,"target":34962,"byteStride":12},{"buffer":0,"byteOffset":3084,"byteLength":576,"target":34962,"byteStride":12},{"buffer":0,"byteOffset":3660,"byteLength":384,"target":34962,"byteStride":8},{"buffer":0,"byteOffset":4044,"byteLength":132,"target":34963},{"buffer":0,"byteOffset":4176,"byteLength":576,"target":34962,"byteStride":12},{"buffer":0,"byteOffset":4752,"byteLength":576,"target":34962,"byteStride":12},{"buffer":0,"byteOffset":5328,"byteLength":384,"target":34962,"byteStride":8},{"buffer":0,"byteOffset":5712,"byteLength":132,"target":34963},{"buffer":0,"byteOffset":5844,"byteLength":576,"target":34962,"byteStride":12},{"buffer":0,"byteOffset":6420,"byteLength":576,"target":34962,"byteStride":12},{"buffer":0,"byteOffset":6996,"byteLength":384,"target":34962,"byteStride":8},{"buffer":0,"byteOffset":7380,"byteLength":132,"target":34963},{"buffer":0,"byteOffset":7512,"byteLength":576,"target":34962,"byteStride":12},{"buffer":0,"byteOffset":8088,"byteLength":576,"target":34962,"byteStride":12},{"buffer":0,"byteOffset":8664,"byteLength":384,"target":34962,"byteStride":8},{"buffer":0,"byteOffset":9048,"byteLength":132,"target":34963},{"buffer":0,"byteOffset":9180,"byteLength":288,"target":34962,"byteStride":12},{"buffer":0,"byteOffset":9468,"byteLength":288,"target":34962,"byteStride":12},{"buffer":0,"byteOffset":9756,"byteLength":192,"target":34962,"byteStride":8},{"buffer":0,"byteOffset":9948,"byteLength":72,"target":34963},{"buffer":0,"byteOffset":10020,"byteLength":576,"target":34962,"byteStride":12},{"buffer":0,"byteOffset":10596,"byteLength":576,"target":34962,"byteStride":12},{"buffer":0,"byteOffset":11172,"byteLength":384,"target":34962,"byteStride":8},{"buffer":0,"byteOffset":11556,"byteLength":132,"target":34963},{"buffer":0,"byteOffset":11688,"byteLength":576,"target":34962,"byteStride":12},{"buffer":0,"byteOffset":12264,"byteLength":576,"target":34962,"byteStride":12},{"buffer":0,"byteOffset":12840,"byteLength":384,"target":34962,"byteStride":8},{"buffer":0,"byteOffset":13224,"byteLength":132,"target":34963},{"buffer":0,"byteOffset":13356,"byteLength":576,"target":34962,"byteStride":12},{"buffer":0,"byteOffset":13932,"byteLength":576,"target":34962,"byteStride":12},{"buffer":0,"byteOffset":14508,"byteLength":384,"target":34962,"byteStride":8},{"buffer":0,"byteOffset":14892,"byteLength":132,"target":34963},{"buffer":0,"byteOffset":15024,"byteLength":1920,"target":34962,"byteStride":12},{"buffer":0,"byteOffset":16944,"byteLength":1920,"target":34962,"byteStride":12},{"buffer":0,"byteOffset":18864,"byteLength":1280,"target":34962,"byteStride":8},{"buffer":0,"byteOffset":20144,"byteLength":480,"target":34963}],"buffers":[{"byteLength":20624,"uri":"data:application/octet-stream;base64,"}],"accessors":[{"bufferView":0,"componentType":5126,"count":24,"max":[0.012500000186264515,-1.3877787807814457e-17,0.01875000074505806],"min":[-0.06875000149011612,-0.00937500037252903,0],"type":"VEC3"},{"bufferView":1,"componentType":5126,"count":24,"max":[1,1,1],"min":[-1,-1,-1],"type":"VEC3"},{"bufferView":2,"componentType":5126,"count":24,"max":[0.359375,0.046875],"min":[0.015625,0.015625],"type":"VEC2"},{"bufferView":3,"componentType":5123,"count":36,"max":[23],"min":[0],"type":"SCALAR"},{"bufferView":4,"componentType":5126,"count":48,"max":[0.0062500000931322575,0.0062500000931322575,0.02500000037252903],"min":[-0.0062500000931322575,-0.0062500000931322575,-0.02500000037252903],"type":"VEC3"},{"bufferView":5,"componentType":5126,"count":48,"max":[1,1,1],"min":[-1,-1,-0.4472135901451111],"type":"VEC3"},{"bufferView":6,"componentType":5126,"count":48,"max":[0.3064406216144562,0.3125],"min":[0,0],"type":"VEC2"},{"bufferView":7,"componentType":5123,"count":66,"max":[47],"min":[0],"type":"SCALAR"},{"bufferView":8,"componentType":5126,"count":48,"max":[0.015088834799826145,0.015088834799826145,0.02500000037252903],"min":[-0.0062500000931322575,-0.0062500000931322575,-0.02500000037252903],"type":"VEC3"},{"bufferView":9,"componentType":5126,"count":48,"max":[0.9238795042037964,1,1],"min":[-0.9701424837112427,-1,-0.6914433240890503],"type":"VEC3"},{"bufferView":10,"componentType":5126,"count":48,"max":[0.3064406216144562,0.3125],"min":[0,0],"type":"VEC2"},{"bufferView":11,"componentType":5123,"count":66,"max":[47],"min":[0],"type":"SCALAR"},{"bufferView":12,"componentType":5126,"count":48,"max":[0.0062500000931322575,0.0062500000931322575,0.02500000037252903],"min":[-0.0062500000931322575,-0.0062500000931322575,-0.02500000037252903],"type":"VEC3"},{"bufferView":13,"componentType":5126,"count":48,"max":[1,1,1],"min":[-1,-1,-0.4472135901451111],"type":"VEC3"},{"bufferView":14,"componentType":5126,"count":48,"max":[0.3064406216144562,0.3125],"min":[0,0],"type":"VEC2"},{"bufferView":15,"componentType":5123,"count":66,"max":[47],"min":[0],"type":"SCALAR"},{"bufferView":16,"componentType":5126,"count":48,"max":[0.0062500000931322575,0.0062500000931322575,0.02500000037252903],"min":[-0.0062500000931322575,-0.0062500000931322575,-0.02500000037252903],"type":"VEC3"},{"bufferView":17,"componentType":5126,"count":48,"max":[1,1,1],"min":[-1,-1,-0.4472135901451111],"type":"VEC3"},{"bufferView":18,"componentType":5126,"count":48,"max":[0.3064406216144562,0.3125],"min":[0,0],"type":"VEC2"},{"bufferView":19,"componentType":5123,"count":66,"max":[47],"min":[0],"type":"SCALAR"},{"bufferView":20,"componentType":5126,"count":48,"max":[0.0062500000931322575,0.0062500000931322575,0.02500000037252903],"min":[-0.0062500000931322575,-0.0062500000931322575,-0.02500000037252903],"type":"VEC3"},{"bufferView":21,"componentType":5126,"count":48,"max":[1,1,1],"min":[-1,-1,-0.4472135901451111],"type":"VEC3"},{"bufferView":22,"componentType":5126,"count":48,"max":[0.3064406216144562,0.3125],"min":[0,0],"type":"VEC2"},{"bufferView":23,"componentType":5123,"count":66,"max":[47],"min":[0],"type":"SCALAR"},{"bufferView":24,"componentType":5126,"count":24,"max":[0.012500000186264515,-1.3877787807814457e-17,0.01875000074505806],"min":[-0.06875000149011612,-0.00937500037252903,0],"type":"VEC3"},{"bufferView":25,"componentType":5126,"count":24,"max":[1,1,1],"min":[-1,-1,-1],"type":"VEC3"},{"bufferView":26,"componentType":5126,"count":24,"max":[0.359375,0.046875],"min":[0.015625,0.015625],"type":"VEC2"},{"bufferView":27,"componentType":5123,"count":36,"max":[23],"min":[0],"type":"SCALAR"},{"bufferView":28,"componentType":5126,"count":48,"max":[0.0062500000931322575,0.0062500000931322575,0.02500000037252903],"min":[-0.0062500000931322575,-0.0062500000931322575,-0.02500000037252903],"type":"VEC3"},{"bufferView":29,"componentType":5126,"count":48,"max":[1,1,1],"min":[-1,-1,-0.4472135901451111],"type":"VEC3"},{"bufferView":30,"componentType":5126,"count":48,"max":[0.3064406216144562,0.3125],"min":[0,0],"type":"VEC2"},{"bufferView":31,"componentType":5123,"count":66,"max":[47],"min":[0],"type":"SCALAR"},{"bufferView":32,"componentType":5126,"count":48,"max":[0.0062500000931322575,0.0062500000931322575,0.02500000037252903],"min":[-0.0062500000931322575,-0.0062500000931322575,-0.02500000037252903],"type":"VEC3"},{"bufferView":33,"componentType":5126,"count":48,"max":[1,1,1],"min":[-1,-1,-0.4472135901451111],"type":"VEC3"},{"bufferView":34,"componentType":5126,"count":48,"max":[0.3064406216144562,0.3125],"min":[0,0],"type":"VEC2"},{"bufferView":35,"componentType":5123,"count":66,"max":[47],"min":[0],"type":"SCALAR"},{"bufferView":36,"componentType":5126,"count":48,"max":[0.0062500000931322575,0.0062500000931322575,0.02500000037252903],"min":[-0.0062500000931322575,-0.0062500000931322575,-0.02500000037252903],"type":"VEC3"},{"bufferView":37,"componentType":5126,"count":48,"max":[1,1,1],"min":[-1,-1,-0.4472135901451111],"type":"VEC3"},{"bufferView":38,"componentType":5126,"count":48,"max":[0.3064406216144562,0.3125],"min":[0,0],"type":"VEC2"},{"bufferView":39,"componentType":5123,"count":66,"max":[47],"min":[0],"type":"SCALAR"},{"bufferView":40,"componentType":5126,"count":160,"max":[0.0625,0.125,0.03125],"min":[-0.078125,0,-0.03125],"type":"VEC3"},{"bufferView":41,"componentType":5126,"count":160,"max":[1,1,1],"min":[-1,-1,-1],"type":"VEC3"},{"bufferView":42,"componentType":5126,"count":160,"max":[0.625,0.625],"min":[0.0054687499068677425,0],"type":"VEC2"},{"bufferView":43,"componentType":5123,"count":240,"max":[159],"min":[0],"type":"SCALAR"}],"materials":[{"pbrMetallicRoughness":{"metallicFactor":0,"roughnessFactor":1,"baseColorTexture":{"index":0}},"alphaMode":"MASK","alphaCutoff":0.05,"doubleSided":true},{"pbrMetallicRoughness":{"metallicFactor":0,"roughnessFactor":1,"baseColorTexture":{"index":1}},"alphaMode":"MASK","alphaCutoff":0.05,"doubleSided":true},{"pbrMetallicRoughness":{"metallicFactor":0,"roughnessFactor":1,"baseColorTexture":{"index":2}},"alphaMode":"MASK","alphaCutoff":0.05,"doubleSided":true}],"textures":[{"sampler":0,"source":0,"name":"texture"},{"sampler":1,"source":1,"name":"texture"},{"sampler":2,"source":2,"name":"chaingun_box_texture"}],"samplers":[{"magFilter":9728,"minFilter":9728,"wrapS":33071,"wrapT":33071},{"magFilter":9728,"minFilter":9728,"wrapS":33071,"wrapT":33071},{"magFilter":9728,"minFilter":9728,"wrapS":33071,"wrapT":33071}],"images":[{"mimeType":"image/png","uri":"data:image/png;base64,"},{"mimeType":"image/png","uri":"data:image/png;base64,"},{"mimeType":"image/png","uri":"data:image/png;base64,"}],"meshes":[{"primitives":[{"mode":4,"attributes":{"POSITION":0,"NORMAL":1,"TEXCOORD_0":2},"indices":3,"material":0}]},{"primitives":[{"mode":4,"attributes":{"POSITION":4,"NORMAL":5,"TEXCOORD_0":6},"indices":7,"material":1}]},{"primitives":[{"mode":4,"attributes":{"POSITION":8,"NORMAL":9,"TEXCOORD_0":10},"indices":11,"material":1}]},{"primitives":[{"mode":4,"attributes":{"POSITION":12,"NORMAL":13,"TEXCOORD_0":14},"indices":15,"material":1}]},{"primitives":[{"mode":4,"attributes":{"POSITION":16,"NORMAL":17,"TEXCOORD_0":18},"indices":19,"material":1}]},{"primitives":[{"mode":4,"attributes":{"POSITION":20,"NORMAL":21,"TEXCOORD_0":22},"indices":23,"material":1}]},{"primitives":[{"mode":4,"attributes":{"POSITION":24,"NORMAL":25,"TEXCOORD_0":26},"indices":27,"material":0}]},{"primitives":[{"mode":4,"attributes":{"POSITION":28,"NORMAL":29,"TEXCOORD_0":30},"indices":31,"material":1}]},{"primitives":[{"mode":4,"attributes":{"POSITION":32,"NORMAL":33,"TEXCOORD_0":34},"indices":35,"material":1}]},{"primitives":[{"mode":4,"attributes":{"POSITION":36,"NORMAL":37,"TEXCOORD_0":38},"indices":39,"material":1}]},{"primitives":[{"mode":4,"attributes":{"POSITION":40,"NORMAL":41,"TEXCOORD_0":42},"indices":43,"material":2}]}]}