{"asset":{"version":"2.0","generator":"Blockbench 4.11.1 glTF exporter"},"scenes":[{"nodes":[4],"name":"blockbench_export"}],"scene":0,"nodes":[{"name":"body","mesh":0},{"name":"rail","mesh":1},{"rotation":[-0.7071067811865475,0,0,0.7071067811865476],"name":"barrel","mesh":2},{"name":"bone","children":[0,1,2]},{"children":[3]}],"bufferViews":[{"buffer":0,"byteOffset":0,"byteLength":1824,"target":34962,"byteStride":12},{"buffer":0,"byteOffset":1824,"byteLength":1824,"target":34962,"byteStride":12},{"buffer":0,"byteOffset":3648,"byteLength":1216,"target":34962,"byteStride":8},{"buffer":0,"byteOffset":4864,"byteLength":456,"target":34963},{"buffer":0,"byteOffset":5320,"byteLength":1296,"target":34962,"byteStride":12},{"buffer":0,"byteOffset":6616,"byteLength":1296,"target":34962,"byteStride":12},{"buffer":0,"byteOffset":7912,"byteLength":864,"target":34962,"byteStride":8},{"buffer":0,"byteOffset":8776,"byteLength":324,"target":34963},{"buffer":0,"byteOffset":9100,"byteLength":1872,"target":34962,"byteStride":12},{"buffer":0,"byteOffset":10972,"byteLength":1872,"target":34962,"byteStride":12},{"buffer":0,"byteOffset":12844,"byteLength":1248,"target":34962,"byteStride":8},{"buffer":0,"byteOffset":14092,"byteLength":432,"target":34963}],"buffers":[{"byteLength":14524,"uri":"data:application/octet-stream;base64,"}],"accessors":[{"bufferView":0,"componentType":5126,"count":152,"max":[0.11249999701976776,0.22499999403953552,0.6937500238418579],"min":[-0.11249999701976776,-0.10000000149011612,-0.5],"type":"VEC3"},{"bufferView":1,"componentType":5126,"count":152,"max":[1,1,1],"min":[-1,-1,-1],"type":"VEC3"},{"bufferView":2,"componentType":5126,"count":152,"max":[1,1],"min":[0,0],"type":"VEC2"},{"bufferView":3,"componentType":5123,"count":228,"max":[151],"min":[0],"type":"SCALAR"},{"bufferView":4,"componentType":5126,"count":108,"max":[0.0625,0.3187499940395355,0.5],"min":[-0.0625,0.125,-0.375],"type":"VEC3"},{"bufferView":5,"componentType":5126,"count":108,"max":[1,1,1],"min":[-1,-0.7071067690849304,-1],"type":"VEC3"},{"bufferView":6,"componentType":5126,"count":108,"max":[0.90625,0.75],"min":[0,0],"type":"VEC2"},{"bufferView":7,"componentType":5123,"count":162,"max":[107],"min":[0],"type":"SCALAR"},{"bufferView":8,"componentType":5126,"count":156,"max":[0.0580127015709877,1.181249976158142,0.046875],"min":[-0.0580127015709877,0.3375000059604645,-0.046875],"type":"VEC3"},{"bufferView":9,"componentType":5126,"count":156,"max":[0.8684605360031128,1,1],"min":[-0.8684605360031128,-1,-1],"type":"VEC3"},{"bufferView":10,"componentType":5126,"count":156,"max":[0.8898500204086304,1],"min":[0,0],"type":"VEC2"},{"bufferView":11,"componentType":5123,"count":216,"max":[155],"min":[0],"type":"SCALAR"}],"materials":[{"pbrMetallicRoughness":{"metallicFactor":0,"roughnessFactor":1,"baseColorTexture":{"index":0}},"alphaMode":"MASK","alphaCutoff":0.05,"doubleSided":true},{"pbrMetallicRoughness":{"metallicFactor":0,"roughnessFactor":1,"baseColorTexture":{"index":1}},"alphaMode":"MASK","alphaCutoff":0.05,"doubleSided":true},{"pbrMetallicRoughness":{"metallicFactor":0,"roughnessFactor":1,"baseColorTexture":{"index":2}},"alphaMode":"MASK","alphaCutoff":0.05,"doubleSided":true}],"textures":[{"sampler":0,"source":0,"name":"body_texture"},{"sampler":1,"source":1,"name":"rail_texture"},{"sampler":2,"source":2,"name":"barrel_texture"}],"samplers":[{"magFilter":9728,"minFilter":9728,"wrapS":33071,"wrapT":33071},{"magFilter":9728,"minFilter":9728,"wrapS":33071,"wrapT":33071},{"magFilter":9728,"minFilter":9728,"wrapS":33071,"wrapT":33071}],"images":[{"mimeType":"image/png","uri":"data:image/png;base64,"},{"mimeType":"image/png","uri":"data:image/png;base64,"},{"mimeType":"image/png","uri":"data:image/png;base64,"}],"meshes":[{"primitives":[{"mode":4,"attributes":{"POSITION":0,"NORMAL":1,"TEXCOORD_0":2},"indices":3,"material":0}]},{"primitives":[{"mode":4,"attributes":{"POSITION":4,"NORMAL":5,"TEXCOORD_0":6},"indices":7,"material":1}]},{"primitives":[{"mode":4,"attributes":{"POSITION":8,"NORMAL":9,"TEXCOORD_0":10},"indices":11,"material":2}]}]}