{"asset":{"version":"2.0","generator":"Blockbench 4.11.1 glTF exporter"},"scenes":[{"nodes":[2],"name":"blockbench_export"}],"scene":0,"nodes":[{"name":"cuboid","mesh":0},{"name":"root","children":[0]},{"children":[1]}],"bufferViews":[{"buffer":0,"byteOffset":0,"byteLength":7944,"target":34962,"byteStride":12},{"buffer":0,"byteOffset":7944,"byteLength":7944,"target":34962,"byteStride":12},{"buffer":0,"byteOffset":15888,"byteLength":5296,"target":34962,"byteStride":8},{"buffer":0,"byteOffset":21184,"byteLength":1752,"target":34963}],"buffers":[{"byteLength":22936,"uri":"data:application/octet-stream;base64,"}],"accessors":[{"bufferView":0,"componentType":5126,"count":662,"max":[0.28125,0.375,0.28125],"min":[-0.28125,0,-0.28125],"type":"VEC3"},{"bufferView":1,"componentType":5126,"count":662,"max":[0.9510565400123596,1,1],"min":[-0.9510565400123596,-1,-0.8682431578636169],"type":"VEC3"},{"bufferView":2,"componentType":5126,"count":662,"max":[0.90625,0.882378101348877],"min":[0,0],"type":"VEC2"},{"bufferView":3,"componentType":5123,"count":876,"max":[661],"min":[0],"type":"SCALAR"}],"materials":[{"pbrMetallicRoughness":{"metallicFactor":0,"roughnessFactor":1,"baseColorTexture":{"index":0}},"alphaMode":"MASK","alphaCutoff":0.05,"doubleSided":true}],"textures":[{"sampler":0,"source":0,"name":"charge_texture"}],"samplers":[{"magFilter":9728,"minFilter":9728,"wrapS":33071,"wrapT":33071}],"images":[{"mimeType":"image/png","uri":"data:image/png;base64,"}],"meshes":[{"primitives":[{"mode":4,"attributes":{"POSITION":0,"NORMAL":1,"TEXCOORD_0":2},"indices":3,"material":0}]}]}