{"asset":{"version":"2.0","generator":"Blockbench 4.11.1 glTF exporter"},"scenes":[{"nodes":[2],"name":"blockbench_export"}],"scene":0,"nodes":[{"name":"cuboid","mesh":0},{"name":"bone","children":[0]},{"children":[1]}],"bufferViews":[{"buffer":0,"byteOffset":0,"byteLength":5760,"target":34962,"byteStride":12},{"buffer":0,"byteOffset":5760,"byteLength":5760,"target":34962,"byteStride":12},{"buffer":0,"byteOffset":11520,"byteLength":3840,"target":34962,"byteStride":8},{"buffer":0,"byteOffset":15360,"byteLength":1440,"target":34963}],"buffers":[{"byteLength":16800,"uri":"data:application/octet-stream;base64,"}],"accessors":[{"bufferView":0,"componentType":5126,"count":480,"max":[0.2750000059604645,0.5249999761581421,0.2750000059604645],"min":[-0.2750000059604645,-0.02500000037252903,-0.28125],"type":"VEC3"},{"bufferView":1,"componentType":5126,"count":480,"max":[1,1,1],"min":[-1,-1,-1],"type":"VEC3"},{"bufferView":2,"componentType":5126,"count":480,"max":[0.90625,1],"min":[0.006358003243803978,0],"type":"VEC2"},{"bufferView":3,"componentType":5123,"count":720,"max":[479],"min":[0],"type":"SCALAR"}],"materials":[{"pbrMetallicRoughness":{"metallicFactor":0,"roughnessFactor":1,"baseColorTexture":{"index":0}},"alphaMode":"MASK","alphaCutoff":0.05,"doubleSided":true}],"textures":[{"sampler":0,"source":0,"name":"idk_texture"}],"samplers":[{"magFilter":9728,"minFilter":9728,"wrapS":33071,"wrapT":33071}],"images":[{"mimeType":"image/png","uri":"data:image/png;base64,"}],"meshes":[{"primitives":[{"mode":4,"attributes":{"POSITION":0,"NORMAL":1,"TEXCOORD_0":2},"indices":3,"material":0}]}]}