{"asset":{"version":"2.0","generator":"Blockbench 4.11.1 glTF exporter"},"scenes":[{"nodes":[2],"name":"blockbench_export"}],"scene":0,"nodes":[{"rotation":[-0.7071068029085357,-9.474996279925626e-10,0.7071067594645587,9.474996862060523e-10],"translation":[-8.673617379884035e-18,-1.3877787807814457e-17,5.204170427930421e-18],"name":"cuboid","mesh":0},{"rotation":[1.0277078255419556e-9,0.7071067582223155,-1.0277078922943104e-9,0.7071068041507789],"translation":[0,0.09375,0],"name":"root","children":[0]},{"children":[1]}],"bufferViews":[{"buffer":0,"byteOffset":0,"byteLength":6720,"target":34962,"byteStride":12},{"buffer":0,"byteOffset":6720,"byteLength":6720,"target":34962,"byteStride":12},{"buffer":0,"byteOffset":13440,"byteLength":4480,"target":34962,"byteStride":8},{"buffer":0,"byteOffset":17920,"byteLength":1680,"target":34963}],"buffers":[{"byteLength":19600,"uri":"data:application/octet-stream;base64,"}],"accessors":[{"bufferView":0,"componentType":5126,"count":560,"max":[0.0312500037252903,0.08749999850988388,0.05624999850988388],"min":[-0.03125,-0.03750000149011612,-0.05625000223517418],"type":"VEC3"},{"bufferView":1,"componentType":5126,"count":560,"max":[1,1,1],"min":[-1,-0.4073065519332886,-1],"type":"VEC3"},{"bufferView":2,"componentType":5126,"count":560,"max":[0.8984375,1],"min":[0,0],"type":"VEC2"},{"bufferView":3,"componentType":5123,"count":840,"max":[559],"min":[0],"type":"SCALAR"}],"materials":[{"pbrMetallicRoughness":{"metallicFactor":0,"roughnessFactor":1,"baseColorTexture":{"index":0}},"alphaMode":"MASK","alphaCutoff":0.05,"doubleSided":true}],"textures":[{"sampler":0,"source":0,"name":"jj_mount_texture.png"}],"samplers":[{"magFilter":9728,"minFilter":9728,"wrapS":33071,"wrapT":33071}],"images":[{"mimeType":"image/png","uri":"data:image/png;base64,"}],"meshes":[{"primitives":[{"mode":4,"attributes":{"POSITION":0,"NORMAL":1,"TEXCOORD_0":2},"indices":3,"material":0}]}]}