{"asset":{"version":"2.0","generator":"Blockbench 4.11.2 glTF exporter"},"scenes":[{"nodes":[2],"name":"blockbench_export"}],"scene":0,"nodes":[{"name":"cuboid","mesh":0},{"name":"bone","children":[0]},{"children":[1]}],"bufferViews":[{"buffer":0,"byteOffset":0,"byteLength":2832,"target":34962,"byteStride":12},{"buffer":0,"byteOffset":2832,"byteLength":2832,"target":34962,"byteStride":12},{"buffer":0,"byteOffset":5664,"byteLength":1888,"target":34962,"byteStride":8},{"buffer":0,"byteOffset":7552,"byteLength":708,"target":34963}],"buffers":[{"byteLength":8260,"uri":"data:application/octet-stream;base64,"}],"accessors":[{"bufferView":0,"componentType":5126,"count":236,"max":[0.15625,0.15625,0.606249988079071],"min":[-0.15625,-0.15625,-0.5625],"type":"VEC3"},{"bufferView":1,"componentType":5126,"count":236,"max":[0.8944271802902222,0.8944271802902222,1],"min":[-0.8944271802902222,-0.8944271802902222,-1],"type":"VEC3"},{"bufferView":2,"componentType":5126,"count":236,"max":[1,1],"min":[7.077671781985373e-16,0],"type":"VEC2"},{"bufferView":3,"componentType":5123,"count":354,"max":[235],"min":[0],"type":"SCALAR"}],"materials":[{"pbrMetallicRoughness":{"metallicFactor":0,"roughnessFactor":1,"baseColorTexture":{"index":0}},"alphaMode":"MASK","alphaCutoff":0.05,"doubleSided":true}],"textures":[{"sampler":0,"source":0,"name":"missile_texture"}],"samplers":[{"magFilter":9728,"minFilter":9728,"wrapS":33071,"wrapT":33071}],"images":[{"mimeType":"image/png","uri":"data:image/png;base64,"}],"meshes":[{"primitives":[{"mode":4,"attributes":{"POSITION":0,"NORMAL":1,"TEXCOORD_0":2},"indices":3,"material":0}]}]}