{"asset":{"version":"2.0","generator":"Blockbench 4.11.2 glTF exporter"},"scenes":[{"nodes":[2],"name":"blockbench_export"}],"scene":0,"nodes":[{"name":"sphere","mesh":0},{"name":"roller","children":[0]},{"children":[1]}],"bufferViews":[{"buffer":0,"byteOffset":0,"byteLength":1848,"target":34962,"byteStride":12},{"buffer":0,"byteOffset":1848,"byteLength":1848,"target":34962,"byteStride":12},{"buffer":0,"byteOffset":3696,"byteLength":1232,"target":34962,"byteStride":8},{"buffer":0,"byteOffset":4928,"byteLength":420,"target":34963}],"buffers":[{"byteLength":5348,"uri":"data:application/octet-stream;base64,"}],"accessors":[{"bufferView":0,"componentType":5126,"count":154,"max":[0.22677208483219147,0.1767766922712326,0.26249998807907104],"min":[-0.2705220878124237,-0.1767766922712326,-0.27747905254364014],"type":"VEC3"},{"bufferView":1,"componentType":5126,"count":154,"max":[0.9774611592292786,0.9529402852058411,0.9234324097633362],"min":[-0.9007159471511841,-0.9999757409095764,-0.891319990158081],"type":"VEC3"},{"bufferView":2,"componentType":5126,"count":154,"max":[0.7440481185913086,0.75],"min":[0,0],"type":"VEC2"},{"bufferView":3,"componentType":5123,"count":210,"max":[153],"min":[0],"type":"SCALAR"}],"materials":[{"pbrMetallicRoughness":{"metallicFactor":0,"roughnessFactor":1,"baseColorTexture":{"index":0}},"alphaMode":"MASK","alphaCutoff":0.05,"doubleSided":true}],"textures":[{"sampler":0,"source":0,"name":"spark_texture"}],"samplers":[{"magFilter":9728,"minFilter":9728,"wrapS":33071,"wrapT":33071}],"images":[{"mimeType":"image/png","uri":"data:image/png;base64,"}],"meshes":[{"primitives":[{"mode":4,"attributes":{"POSITION":0,"NORMAL":1,"TEXCOORD_0":2},"indices":3,"material":0}]}]}