{"asset":{"version":"2.0","generator":"Blockbench 4.10.4 glTF exporter"},"scenes":[{"nodes":[2],"name":"blockbench_export"}],"scene":0,"nodes":[{"translation":[0,0,-0.1875],"name":"cuboid","mesh":0},{"name":"bone","children":[0]},{"children":[1]}],"bufferViews":[{"buffer":0,"byteOffset":0,"byteLength":4224,"target":34962,"byteStride":12},{"buffer":0,"byteOffset":4224,"byteLength":4224,"target":34962,"byteStride":12},{"buffer":0,"byteOffset":8448,"byteLength":2816,"target":34962,"byteStride":8},{"buffer":0,"byteOffset":11264,"byteLength":1056,"target":34963}],"buffers":[{"byteLength":12320,"uri":"data:application/octet-stream;base64,"}],"accessors":[{"bufferView":0,"componentType":5126,"count":352,"max":[0.900850772857666,0.3125,1.613186001777649],"min":[-0.900850772857666,0,-0.75],"type":"VEC3"},{"bufferView":1,"componentType":5126,"count":352,"max":[1,1,0.9149460792541504],"min":[-1,-1,-0.9238795042037964],"type":"VEC3"},{"bufferView":2,"componentType":5126,"count":352,"max":[0.8859218955039978,0.765625],"min":[0,0],"type":"VEC2"},{"bufferView":3,"componentType":5123,"count":528,"max":[351],"min":[0],"type":"SCALAR"}],"materials":[{"pbrMetallicRoughness":{"metallicFactor":0,"roughnessFactor":1,"baseColorTexture":{"index":0}},"alphaMode":"MASK","alphaCutoff":0.05,"doubleSided":true}],"textures":[{"sampler":0,"source":0,"name":"dropship_texture.png"}],"samplers":[{"magFilter":9728,"minFilter":9728,"wrapS":33071,"wrapT":33071}],"images":[{"mimeType":"image/png","uri":"data:image/png;base64,"}],"meshes":[{"primitives":[{"mode":4,"attributes":{"POSITION":0,"NORMAL":1,"TEXCOORD_0":2},"indices":3,"material":0}]}]}