{"asset":{"version":"2.0","generator":"Blockbench 4.10.4 glTF exporter"},"scenes":[{"nodes":[2],"name":"blockbench_export"}],"scene":0,"nodes":[{"translation":[0,0,-0.1875],"name":"cuboid","mesh":0},{"name":"bone","children":[0]},{"children":[1]}],"bufferViews":[{"buffer":0,"byteOffset":0,"byteLength":2784,"target":34962,"byteStride":12},{"buffer":0,"byteOffset":2784,"byteLength":2784,"target":34962,"byteStride":12},{"buffer":0,"byteOffset":5568,"byteLength":1856,"target":34962,"byteStride":8},{"buffer":0,"byteOffset":7424,"byteLength":696,"target":34963}],"buffers":[{"byteLength":8120,"uri":"data:application/octet-stream;base64,"}],"accessors":[{"bufferView":0,"componentType":5126,"count":232,"max":[0.900850772857666,0.3125,1.218752384185791],"min":[-0.900850772857666,0,-0.75],"type":"VEC3"},{"bufferView":1,"componentType":5126,"count":232,"max":[0.755436360836029,1,0.655366063117981],"min":[-0.755436360836029,-1,-0.267656534910202],"type":"VEC3"},{"bufferView":2,"componentType":5126,"count":232,"max":[0.8859218955039978,0.6838613152503967],"min":[0,0],"type":"VEC2"},{"bufferView":3,"componentType":5123,"count":348,"max":[231],"min":[0],"type":"SCALAR"}],"materials":[{"pbrMetallicRoughness":{"metallicFactor":0,"roughnessFactor":1,"baseColorTexture":{"index":0}},"alphaMode":"MASK","alphaCutoff":0.05,"doubleSided":true}],"textures":[{"sampler":0,"source":0,"name":"dropship_texture.png"}],"samplers":[{"magFilter":9728,"minFilter":9728,"wrapS":33071,"wrapT":33071}],"images":[{"mimeType":"image/png","uri":"data:image/png;base64,"}],"meshes":[{"primitives":[{"mode":4,"attributes":{"POSITION":0,"NORMAL":1,"TEXCOORD_0":2},"indices":3,"material":0}]}]}