{"asset":{"version":"2.0","generator":"Blockbench 4.11.1 glTF exporter"},"scenes":[{"nodes":[5],"name":"blockbench_export"}],"scene":0,"nodes":[{"translation":[0,0.875,0],"name":"rotator","mesh":0},{"name":"rotator","children":[0]},{"name":"base","mesh":1},{"name":"base","children":[2]},{"name":"root","children":[1,3]},{"children":[4]}],"bufferViews":[{"buffer":0,"byteOffset":0,"byteLength":2496,"target":34962,"byteStride":12},{"buffer":0,"byteOffset":2496,"byteLength":2496,"target":34962,"byteStride":12},{"buffer":0,"byteOffset":4992,"byteLength":1664,"target":34962,"byteStride":8},{"buffer":0,"byteOffset":6656,"byteLength":624,"target":34963},{"buffer":0,"byteOffset":7280,"byteLength":2352,"target":34962,"byteStride":12},{"buffer":0,"byteOffset":9632,"byteLength":2352,"target":34962,"byteStride":12},{"buffer":0,"byteOffset":11984,"byteLength":1568,"target":34962,"byteStride":8},{"buffer":0,"byteOffset":13552,"byteLength":564,"target":34963},{"buffer":0,"byteOffset":14116,"byteLength":12},{"buffer":0,"byteOffset":14128,"byteLength":48},{"buffer":0,"byteOffset":14176,"byteLength":12},{"buffer":0,"byteOffset":14188,"byteLength":48},{"buffer":0,"byteOffset":14236,"byteLength":8},{"buffer":0,"byteOffset":14244,"byteLength":32}],"buffers":[{"byteLength":14276,"uri":"data:application/octet-stream;base64,"}],"accessors":[{"bufferView":0,"componentType":5126,"count":208,"max":[0.518750011920929,0.109375,0.125],"min":[-0.518750011920929,-0.04062499850988388,-0.125],"type":"VEC3"},{"bufferView":1,"componentType":5126,"count":208,"max":[1,0.9995120763778687,1],"min":[-1,-0.9995120763778687,-1],"type":"VEC3"},{"bufferView":2,"componentType":5126,"count":208,"max":[0.5625,0.53125],"min":[0,0],"type":"VEC2"},{"bufferView":3,"componentType":5123,"count":312,"max":[207],"min":[0],"type":"SCALAR"},{"bufferView":4,"componentType":5126,"count":196,"max":[0.1328125,0.875,0.1328125],"min":[-0.1328125,0,-0.1328125],"type":"VEC3"},{"bufferView":5,"componentType":5126,"count":196,"max":[1,1,1],"min":[-1,-1,-1],"type":"VEC3"},{"bufferView":6,"componentType":5126,"count":196,"max":[0.71875,0.8805999755859375],"min":[0,0],"type":"VEC2"},{"bufferView":7,"componentType":5123,"count":282,"max":[195],"min":[0],"type":"SCALAR"},{"bufferView":8,"componentType":5126,"count":3,"max":[1],"min":[0],"type":"SCALAR"},{"bufferView":9,"componentType":5126,"count":3,"max":[0,0,0,1],"min":[0,0,0,1],"type":"VEC4"},{"bufferView":10,"componentType":5126,"count":3,"max":[2],"min":[0],"type":"SCALAR"},{"bufferView":11,"componentType":5126,"count":3,"max":[0,0,0,1],"min":[0,-1,0,6.123234262925839e-17],"type":"VEC4"},{"bufferView":12,"componentType":5126,"count":2,"max":[2],"min":[0],"type":"SCALAR"},{"bufferView":13,"componentType":5126,"count":2,"max":[0,0,0,1],"min":[0,0,0,1],"type":"VEC4"}],"materials":[{"pbrMetallicRoughness":{"metallicFactor":0,"roughnessFactor":1,"baseColorTexture":{"index":0}},"alphaMode":"MASK","alphaCutoff":0.05,"doubleSided":true},{"pbrMetallicRoughness":{"metallicFactor":0,"roughnessFactor":1,"baseColorTexture":{"index":1}},"alphaMode":"MASK","alphaCutoff":0.05,"doubleSided":true}],"textures":[{"sampler":0,"source":0,"name":"tower_rotator_texture.png"},{"sampler":1,"source":1,"name":"tower_heavy_texture.png"}],"samplers":[{"magFilter":9728,"minFilter":9728,"wrapS":33071,"wrapT":33071},{"magFilter":9728,"minFilter":9728,"wrapS":33071,"wrapT":33071}],"images":[{"mimeType":"image/png","uri":"data:image/png;base64,"},{"mimeType":"image/png","uri":"data:image/png;base64,"}],"meshes":[{"primitives":[{"mode":4,"attributes":{"POSITION":0,"NORMAL":1,"TEXCOORD_0":2},"indices":3,"material":0}]},{"primitives":[{"mode":4,"attributes":{"POSITION":4,"NORMAL":5,"TEXCOORD_0":6},"indices":7,"material":1}]}],"animations":[{"name":"rotate","samplers":[{"input":8,"output":9,"interpolation":"LINEAR"},{"input":10,"output":11,"interpolation":"LINEAR"}],"channels":[{"sampler":0,"target":{"node":4,"path":"rotation"}},{"sampler":1,"target":{"node":1,"path":"rotation"}}]},{"name":"idle","samplers":[{"input":12,"output":13,"interpolation":"LINEAR"}],"channels":[{"sampler":0,"target":{"node":1,"path":"rotation"}}]}]}