{"asset":{"version":"2.0","generator":"Blockbench 4.12.3 glTF exporter"},"scenes":[{"nodes":[32],"name":"blockbench_export"}],"scene":0,"nodes":[{"name":"canopy_1","extras":{"name":"canopy"},"mesh":0},{"translation":[0,0.046875,0],"name":"canopy","extras":{"name":"canopy"},"children":[0]},{"translation":[0,0.0390625,-0.00390625],"name":"foot_right_1","extras":{"name":"foot_right"},"mesh":1},{"translation":[0,-0.01953125,-0.0234375],"name":"foot_left","extras":{"name":"foot_left"},"children":[2]},{"rotation":[0.2847849154995486,0.64722295378325,0.28478491549954854,0.6472229537832501],"translation":[-0.01171875,0.00390625,0.00390625],"name":"calf_left_1","extras":{"name":"calf_left"},"mesh":2},{"translation":[0,-0.015625,0.015625],"name":"calf_left","extras":{"name":"calf_left"},"children":[3,4]},{"translation":[0,-0.04296875,-0.01171875],"name":"thigh_left_1","extras":{"name":"thigh_left"},"mesh":3},{"translation":[0,0.04296875,0.01171875],"name":"thigh_left","extras":{"name":"thigh_left"},"children":[5,6]},{"translation":[0,0.0390625,-0.00390625],"name":"foot_right_2","extras":{"name":"foot_right"},"mesh":4},{"translation":[0,-0.01953125,-0.0234375],"name":"foot_right","extras":{"name":"foot_right"},"children":[8]},{"rotation":[0.28478491762136304,-0.6472229489610625,-0.2847849133777371,0.6472229586054361],"translation":[0.01171875,0.00390625,0.00390625],"name":"calf_right_1","extras":{"name":"calf_right"},"mesh":5},{"translation":[0,-0.015625,0.015625],"name":"calf_right","extras":{"name":"calf_right"},"children":[9,10]},{"translation":[0,-0.04296875,-0.01171875],"name":"cuboid","extras":{"name":"cuboid"},"mesh":6},{"translation":[0,0.04296875,0.01171875],"name":"thigh_right","extras":{"name":"thigh_right"},"children":[11,12]},{"name":"cuboid_1","extras":{"name":"cuboid"},"mesh":7},{"translation":[0,0.04296875,0],"name":"ejection_seat","extras":{"name":"ejection_seat"},"children":[14]},{"translation":[0,-0.0546875,0],"name":"cabin_1","extras":{"name":"cabin"},"mesh":8},{"translation":[0,0.1015625,0],"name":"cabin","extras":{"name":"cabin"},"children":[16]},{"rotation":[0,-1,0,6.123233995736766e-17],"name":"root","extras":{"name":"root"},"children":[1,7,13,15,17]},{"children":[18]},{"name":"blockbench_export","children":[19]},{"name":"mech_light_002","children":[20]},{"name":"canopy","mesh":9},{"name":"foot_right","mesh":10},{"name":"calf_left","mesh":11},{"name":"thigh_left","mesh":12},{"name":"foot_right","mesh":13},{"name":"calf_right","mesh":14},{"name":"cuboid","mesh":15},{"name":"cuboid","mesh":16},{"name":"cabin","mesh":17},{"name":"root","children":[22,23,24,25,26,27,28,29,30]},{"children":[21,31]}],"bufferViews":[{"buffer":0,"byteOffset":0,"byteLength":480,"target":34962,"byteStride":12},{"buffer":0,"byteOffset":480,"byteLength":480,"target":34962,"byteStride":12},{"buffer":0,"byteOffset":960,"byteLength":320,"target":34962,"byteStride":8},{"buffer":0,"byteOffset":1280,"byteLength":120,"target":34963},{"buffer":0,"byteOffset":1400,"byteLength":624,"target":34962,"byteStride":12},{"buffer":0,"byteOffset":2024,"byteLength":624,"target":34962,"byteStride":12},{"buffer":0,"byteOffset":2648,"byteLength":416,"target":34962,"byteStride":8},{"buffer":0,"byteOffset":3064,"byteLength":156,"target":34963},{"buffer":0,"byteOffset":3220,"byteLength":864,"target":34962,"byteStride":12},{"buffer":0,"byteOffset":4084,"byteLength":864,"target":34962,"byteStride":12},{"buffer":0,"byteOffset":4948,"byteLength":576,"target":34962,"byteStride":8},{"buffer":0,"byteOffset":5524,"byteLength":216,"target":34963},{"buffer":0,"byteOffset":5740,"byteLength":480,"target":34962,"byteStride":12},{"buffer":0,"byteOffset":6220,"byteLength":480,"target":34962,"byteStride":12},{"buffer":0,"byteOffset":6700,"byteLength":320,"target":34962,"byteStride":8},{"buffer":0,"byteOffset":7020,"byteLength":120,"target":34963},{"buffer":0,"byteOffset":7140,"byteLength":624,"target":34962,"byteStride":12},{"buffer":0,"byteOffset":7764,"byteLength":624,"target":34962,"byteStride":12},{"buffer":0,"byteOffset":8388,"byteLength":416,"target":34962,"byteStride":8},{"buffer":0,"byteOffset":8804,"byteLength":156,"target":34963},{"buffer":0,"byteOffset":8960,"byteLength":864,"target":34962,"byteStride":12},{"buffer":0,"byteOffset":9824,"byteLength":864,"target":34962,"byteStride":12},{"buffer":0,"byteOffset":10688,"byteLength":576,"target":34962,"byteStride":8},{"buffer":0,"byteOffset":11264,"byteLength":216,"target":34963},{"buffer":0,"byteOffset":11480,"byteLength":480,"target":34962,"byteStride":12},{"buffer":0,"byteOffset":11960,"byteLength":480,"target":34962,"byteStride":12},{"buffer":0,"byteOffset":12440,"byteLength":320,"target":34962,"byteStride":8},{"buffer":0,"byteOffset":12760,"byteLength":120,"target":34963},{"buffer":0,"byteOffset":12880,"byteLength":672,"target":34962,"byteStride":12},{"buffer":0,"byteOffset":13552,"byteLength":672,"target":34962,"byteStride":12},{"buffer":0,"byteOffset":14224,"byteLength":448,"target":34962,"byteStride":8},{"buffer":0,"byteOffset":14672,"byteLength":168,"target":34963},{"buffer":0,"byteOffset":14840,"byteLength":2400,"target":34962,"byteStride":12},{"buffer":0,"byteOffset":17240,"byteLength":2400,"target":34962,"byteStride":12},{"buffer":0,"byteOffset":19640,"byteLength":1600,"target":34962,"byteStride":8},{"buffer":0,"byteOffset":21240,"byteLength":588,"target":34963},{"buffer":0,"byteOffset":21828,"byteLength":720,"target":34962,"byteStride":12},{"buffer":0,"byteOffset":22548,"byteLength":720,"target":34962,"byteStride":12},{"buffer":0,"byteOffset":23268,"byteLength":480,"target":34962,"byteStride":8},{"buffer":0,"byteOffset":23748,"byteLength":120,"target":34963},{"buffer":0,"byteOffset":23868,"byteLength":936,"target":34962,"byteStride":12},{"buffer":0,"byteOffset":24804,"byteLength":936,"target":34962,"byteStride":12},{"buffer":0,"byteOffset":25740,"byteLength":624,"target":34962,"byteStride":8},{"buffer":0,"byteOffset":26364,"byteLength":156,"target":34963},{"buffer":0,"byteOffset":26520,"byteLength":1296,"target":34962,"byteStride":12},{"buffer":0,"byteOffset":27816,"byteLength":1296,"target":34962,"byteStride":12},{"buffer":0,"byteOffset":29112,"byteLength":864,"target":34962,"byteStride":8},{"buffer":0,"byteOffset":29976,"byteLength":216,"target":34963},{"buffer":0,"byteOffset":30192,"byteLength":720,"target":34962,"byteStride":12},{"buffer":0,"byteOffset":30912,"byteLength":720,"target":34962,"byteStride":12},{"buffer":0,"byteOffset":31632,"byteLength":480,"target":34962,"byteStride":8},{"buffer":0,"byteOffset":32112,"byteLength":120,"target":34963},{"buffer":0,"byteOffset":32232,"byteLength":936,"target":34962,"byteStride":12},{"buffer":0,"byteOffset":33168,"byteLength":936,"target":34962,"byteStride":12},{"buffer":0,"byteOffset":34104,"byteLength":624,"target":34962,"byteStride":8},{"buffer":0,"byteOffset":34728,"byteLength":156,"target":34963},{"buffer":0,"byteOffset":34884,"byteLength":1296,"target":34962,"byteStride":12},{"buffer":0,"byteOffset":36180,"byteLength":1296,"target":34962,"byteStride":12},{"buffer":0,"byteOffset":37476,"byteLength":864,"target":34962,"byteStride":8},{"buffer":0,"byteOffset":38340,"byteLength":216,"target":34963},{"buffer":0,"byteOffset":38556,"byteLength":720,"target":34962,"byteStride":12},{"buffer":0,"byteOffset":39276,"byteLength":720,"target":34962,"byteStride":12},{"buffer":0,"byteOffset":39996,"byteLength":480,"target":34962,"byteStride":8},{"buffer":0,"byteOffset":40476,"byteLength":120,"target":34963},{"buffer":0,"byteOffset":40596,"byteLength":1008,"target":34962,"byteStride":12},{"buffer":0,"byteOffset":41604,"byteLength":1008,"target":34962,"byteStride":12},{"buffer":0,"byteOffset":42612,"byteLength":672,"target":34962,"byteStride":8},{"buffer":0,"byteOffset":43284,"byteLength":168,"target":34963},{"buffer":0,"byteOffset":43452,"byteLength":3528,"target":34962,"byteStride":12},{"buffer":0,"byteOffset":46980,"byteLength":3528,"target":34962,"byteStride":12},{"buffer":0,"byteOffset":50508,"byteLength":2352,"target":34962,"byteStride":8},{"buffer":0,"byteOffset":52860,"byteLength":588,"target":34963}],"buffers":[{"byteLength":53448,"uri":"data:application/octet-stream;base64,"}],"accessors":[{"bufferView":0,"componentType":5126,"count":40,"max":[0.0078125,0.01953125,0.0234375],"min":[-0.0078125,0.00390625,-0.02734375],"type":"VEC3"},{"bufferView":1,"componentType":5126,"count":40,"max":[1,1,0.5547001957893372],"min":[-1,0,-0.4472135901451111],"type":"VEC3"},{"bufferView":2,"componentType":5126,"count":40,"max":[0.39453125,0.875],"min":[0.111328125,0.6164078116416931],"type":"VEC2"},{"bufferView":3,"componentType":5123,"count":60,"max":[39],"min":[0],"type":"SCALAR"},{"bufferView":4,"componentType":5126,"count":52,"max":[-0.005859375,-0.03738076239824295,0.008421682752668858],"min":[-0.017578125,-0.04563650116324425,-0.014134149998426437],"type":"VEC3"},{"bufferView":5,"componentType":5126,"count":52,"max":[0.9886020421981812,0.9996632933616638,0.9992198348045349],"min":[-1,-0.9868648052215576,-0.9598104357719421],"type":"VEC3"},{"bufferView":6,"componentType":5126,"count":52,"max":[0.6701961159706116,1],"min":[0.25,0.34375],"type":"VEC2"},{"bufferView":7,"componentType":5123,"count":78,"max":[51],"min":[0],"type":"SCALAR"},{"bufferView":8,"componentType":5126,"count":72,"max":[0.0031250000465661287,0.02421874925494194,0.001953125],"min":[-0.0031250000465661287,-0.03515625,-0.0042968750931322575],"type":"VEC3"},{"bufferView":9,"componentType":5126,"count":72,"max":[1,1,1],"min":[-1,-1,-1],"type":"VEC3"},{"bufferView":10,"componentType":5126,"count":72,"max":[0.690072774887085,1],"min":[0.078125,0.3125],"type":"VEC2"},{"bufferView":11,"componentType":5123,"count":108,"max":[71],"min":[0],"type":"SCALAR"},{"bufferView":12,"componentType":5126,"count":40,"max":[-0.0054687499068677425,0.050355810672044754,0.029920458793640137],"min":[-0.01718750037252903,0.02905152551829815,0.003486121539026499],"type":"VEC3"},{"bufferView":13,"componentType":5126,"count":40,"max":[1,0.8992911577224731,0.7734137177467346],"min":[-1,-0.8735897541046143,-0.7933533191680908],"type":"VEC3"},{"bufferView":14,"componentType":5126,"count":40,"max":[0.65625,1],"min":[0.001953125,0.4765625],"type":"VEC2"},{"bufferView":15,"componentType":5123,"count":60,"max":[39],"min":[0],"type":"SCALAR"},{"bufferView":16,"componentType":5126,"count":52,"max":[0.017578125,-0.03738076239824295,0.008421682752668858],"min":[0.005859375,-0.04563650116324425,-0.014134149998426437],"type":"VEC3"},{"bufferView":17,"componentType":5126,"count":52,"max":[1,0.9996632933616638,0.9992198348045349],"min":[-0.9886020421981812,-0.9868648052215576,-0.9598104357719421],"type":"VEC3"},{"bufferView":18,"componentType":5126,"count":52,"max":[0.686718761920929,0.9988415241241455],"min":[0.078125,0.3125],"type":"VEC2"},{"bufferView":19,"componentType":5123,"count":78,"max":[51],"min":[0],"type":"SCALAR"},{"bufferView":20,"componentType":5126,"count":72,"max":[0.0031250000465661287,0.02421874925494194,0.001953125],"min":[-0.0031250000465661287,-0.03515625,-0.0042968750931322575],"type":"VEC3"},{"bufferView":21,"componentType":5126,"count":72,"max":[1,1,1],"min":[-1,-1,-1],"type":"VEC3"},{"bufferView":22,"componentType":5126,"count":72,"max":[0.705697774887085,0.921875],"min":[0.0011718750465661287,0.29296875],"type":"VEC2"},{"bufferView":23,"componentType":5123,"count":108,"max":[71],"min":[0],"type":"SCALAR"},{"bufferView":24,"componentType":5126,"count":40,"max":[0.01718750037252903,0.050355810672044754,0.029920458793640137],"min":[0.0054687499068677425,0.02905152551829815,0.003486121539026499],"type":"VEC3"},{"bufferView":25,"componentType":5126,"count":40,"max":[1,0.8992911577224731,0.7734137177467346],"min":[-1,-0.8735897541046143,-0.7933533191680908],"type":"VEC3"},{"bufferView":26,"componentType":5126,"count":40,"max":[0.703125,1],"min":[0.064453125,0.44943439960479736],"type":"VEC2"},{"bufferView":27,"componentType":5123,"count":60,"max":[39],"min":[0],"type":"SCALAR"},{"bufferView":28,"componentType":5126,"count":56,"max":[0.00390625,0.018086859956383705,0.006596116349101067],"min":[-0.00390625,0.005802024155855179,-0.00390625],"type":"VEC3"},{"bufferView":29,"componentType":5126,"count":56,"max":[1,1,0.9980331063270569],"min":[-1,-1,-1],"type":"VEC3"},{"bufferView":30,"componentType":5126,"count":56,"max":[0.6875,0.8868640661239624],"min":[0.203125,0.32421875],"type":"VEC2"},{"bufferView":31,"componentType":5123,"count":84,"max":[55],"min":[0],"type":"SCALAR"},{"bufferView":32,"componentType":5126,"count":200,"max":[0.0078125,0.01171875,0.027937723323702812],"min":[-0.0078125,-0.007767077069729567,-0.02734375],"type":"VEC3"},{"bufferView":33,"componentType":5126,"count":200,"max":[1,1,1],"min":[-1,-1,-1],"type":"VEC3"},{"bufferView":34,"componentType":5126,"count":200,"max":[0.734375,1],"min":[0,0.41721874475479126],"type":"VEC2"},{"bufferView":35,"componentType":5123,"count":294,"max":[199],"min":[0],"type":"SCALAR"},{"bufferView":36,"componentType":5126,"count":60,"max":[0.125,1.0625,0.4375],"min":[-0.125,0.8125,-0.375],"type":"VEC3"},{"bufferView":37,"componentType":5126,"count":60,"max":[1,1,0.4472135901451111],"min":[-1,0,-0.5547001957893372],"type":"VEC3"},{"bufferView":38,"componentType":5126,"count":60,"max":[0.39453125,1.383592128753662],"min":[0.111328125,1.125],"type":"VEC2"},{"bufferView":39,"componentType":5123,"count":60,"max":[59],"min":[0],"type":"SCALAR"},{"bufferView":40,"componentType":5126,"count":78,"max":[0.28125,0.1519078016281128,0.226146399974823],"min":[0.09375,0.01981598138809204,-0.13474692404270172],"type":"VEC3"},{"bufferView":41,"componentType":5126,"count":78,"max":[1,0.9996632933616638,0.9598104357719421],"min":[-0.9983485341072083,-0.9868648052215576,-0.9992198348045349],"type":"VEC3"},{"bufferView":42,"componentType":5126,"count":78,"max":[0.6701961159706116,1.65625],"min":[0.25,1],"type":"VEC2"},{"bufferView":43,"componentType":5123,"count":78,"max":[77],"min":[0],"type":"SCALAR"},{"bufferView":44,"componentType":5126,"count":108,"max":[0.2562499940395355,0.7756151556968689,-0.0694473534822464],"min":[0.15625,0.10270056873559952,-0.7983622550964355],"type":"VEC3"},{"bufferView":45,"componentType":5126,"count":108,"max":[1,0.8153805732727051,0.9990481734275818],"min":[-1,-0.9990481734275818,-0.7618212103843689],"type":"VEC3"},{"bufferView":46,"componentType":5126,"count":108,"max":[0.690072774887085,1.6875],"min":[0.078125,1],"type":"VEC2"},{"bufferView":47,"componentType":5123,"count":108,"max":[107],"min":[0],"type":"SCALAR"},{"bufferView":48,"componentType":5126,"count":60,"max":[0.2750000059604645,0.8056929707527161,-0.05577794462442398],"min":[0.08749999850988388,0.4648244082927704,-0.4787273406982422],"type":"VEC3"},{"bufferView":49,"componentType":5126,"count":60,"max":[1,0.8992910981178284,0.7933534383773804],"min":[-1,-0.8735897541046143,-0.7734137177467346],"type":"VEC3"},{"bufferView":50,"componentType":5126,"count":60,"max":[0.65625,1.5234375],"min":[0.001953125,1],"type":"VEC2"},{"bufferView":51,"componentType":5123,"count":60,"max":[59],"min":[0],"type":"SCALAR"},{"bufferView":52,"componentType":5126,"count":78,"max":[-0.09375,0.1519078016281128,0.226146399974823],"min":[-0.28125,0.01981598138809204,-0.13474692404270172],"type":"VEC3"},{"bufferView":53,"componentType":5126,"count":78,"max":[0.9983485341072083,0.9996632933616638,0.9598104357719421],"min":[-1,-0.9868648052215576,-0.9992198348045349],"type":"VEC3"},{"bufferView":54,"componentType":5126,"count":78,"max":[0.686718761920929,1.6875],"min":[0.078125,1.0011584758758545],"type":"VEC2"},{"bufferView":55,"componentType":5123,"count":78,"max":[77],"min":[0],"type":"SCALAR"},{"bufferView":56,"componentType":5126,"count":108,"max":[-0.15625,0.7756151556968689,-0.0694473534822464],"min":[-0.2562499940395355,0.10270056873559952,-0.7983622550964355],"type":"VEC3"},{"bufferView":57,"componentType":5126,"count":108,"max":[1,0.8153805732727051,0.9990481734275818],"min":[-1,-0.9990481734275818,-0.7618212103843689],"type":"VEC3"},{"bufferView":58,"componentType":5126,"count":108,"max":[0.705697774887085,1.70703125],"min":[0.0011718750465661287,1.078125],"type":"VEC2"},{"bufferView":59,"componentType":5123,"count":108,"max":[107],"min":[0],"type":"SCALAR"},{"bufferView":60,"componentType":5126,"count":60,"max":[-0.08749999850988388,0.8056929707527161,-0.05577794462442398],"min":[-0.2750000059604645,0.4648244082927704,-0.4787273406982422],"type":"VEC3"},{"bufferView":61,"componentType":5126,"count":60,"max":[1,0.8992910981178284,0.7933534383773804],"min":[-1,-0.8735897541046143,-0.7734137177467346],"type":"VEC3"},{"bufferView":62,"componentType":5126,"count":60,"max":[0.703125,1.5505656003952026],"min":[0.064453125,1],"type":"VEC2"},{"bufferView":63,"componentType":5123,"count":60,"max":[59],"min":[0],"type":"SCALAR"},{"bufferView":64,"componentType":5126,"count":84,"max":[0.0625,0.9768897294998169,0.0625],"min":[-0.0625,0.7803323864936829,-0.10553786158561707],"type":"VEC3"},{"bufferView":65,"componentType":5126,"count":84,"max":[1,1,1],"min":[-1,-1,-0.9980331063270569],"type":"VEC3"},{"bufferView":66,"componentType":5126,"count":84,"max":[0.6875,1.67578125],"min":[0.203125,1.1131359338760376],"type":"VEC2"},{"bufferView":67,"componentType":5123,"count":84,"max":[83],"min":[0],"type":"SCALAR"},{"bufferView":68,"componentType":5126,"count":294,"max":[0.125,0.9375,0.4375],"min":[-0.125,0.6257267594337463,-0.447003573179245],"type":"VEC3"},{"bufferView":69,"componentType":5126,"count":294,"max":[1,1,1],"min":[-1,-1,-1],"type":"VEC3"},{"bufferView":70,"componentType":5126,"count":294,"max":[0.734375,1.5827813148498535],"min":[0,1],"type":"VEC2"},{"bufferView":71,"componentType":5123,"count":294,"max":[293],"min":[0],"type":"SCALAR"}],"materials":[{"pbrMetallicRoughness":{"metallicFactor":0,"roughnessFactor":1,"baseColorTexture":{"index":0}},"alphaMode":"MASK","alphaCutoff":0.05,"doubleSided":true},{"pbrMetallicRoughness":{"metallicFactor":0,"roughnessFactor":1},"alphaMode":"MASK","alphaCutoff":0.05,"doubleSided":true}],"textures":[{"sampler":0,"source":0,"name":"blackiron004.png"}],"samplers":[{"magFilter":9728,"minFilter":9728,"wrapS":33071,"wrapT":33071}],"images":[{"mimeType":"image/png","name":"Unknown","uri":""}],"meshes":[{"primitives":[{"mode":4,"attributes":{"POSITION":0,"NORMAL":1,"TEXCOORD_0":2},"indices":3,"material":0}]},{"primitives":[{"mode":4,"attributes":{"POSITION":4,"NORMAL":5,"TEXCOORD_0":6},"indices":7,"material":0}]},{"primitives":[{"mode":4,"attributes":{"POSITION":8,"NORMAL":9,"TEXCOORD_0":10},"indices":11,"material":0}]},{"primitives":[{"mode":4,"attributes":{"POSITION":12,"NORMAL":13,"TEXCOORD_0":14},"indices":15,"material":0}]},{"primitives":[{"mode":4,"attributes":{"POSITION":16,"NORMAL":17,"TEXCOORD_0":18},"indices":19,"material":0}]},{"primitives":[{"mode":4,"attributes":{"POSITION":20,"NORMAL":21,"TEXCOORD_0":22},"indices":23,"material":0}]},{"primitives":[{"mode":4,"attributes":{"POSITION":24,"NORMAL":25,"TEXCOORD_0":26},"indices":27,"material":0}]},{"primitives":[{"mode":4,"attributes":{"POSITION":28,"NORMAL":29,"TEXCOORD_0":30},"indices":31,"material":0}]},{"primitives":[{"mode":4,"attributes":{"POSITION":32,"NORMAL":33,"TEXCOORD_0":34},"indices":35,"material":0}]},{"primitives":[{"mode":4,"attributes":{"POSITION":36,"NORMAL":37,"TEXCOORD_0":38},"indices":39,"material":1}]},{"primitives":[{"mode":4,"attributes":{"POSITION":40,"NORMAL":41,"TEXCOORD_0":42},"indices":43,"material":1}]},{"primitives":[{"mode":4,"attributes":{"POSITION":44,"NORMAL":45,"TEXCOORD_0":46},"indices":47,"material":1}]},{"primitives":[{"mode":4,"attributes":{"POSITION":48,"NORMAL":49,"TEXCOORD_0":50},"indices":51,"material":1}]},{"primitives":[{"mode":4,"attributes":{"POSITION":52,"NORMAL":53,"TEXCOORD_0":54},"indices":55,"material":1}]},{"primitives":[{"mode":4,"attributes":{"POSITION":56,"NORMAL":57,"TEXCOORD_0":58},"indices":59,"material":1}]},{"primitives":[{"mode":4,"attributes":{"POSITION":60,"NORMAL":61,"TEXCOORD_0":62},"indices":63,"material":1}]},{"primitives":[{"mode":4,"attributes":{"POSITION":64,"NORMAL":65,"TEXCOORD_0":66},"indices":67,"material":1}]},{"primitives":[{"mode":4,"attributes":{"POSITION":68,"NORMAL":69,"TEXCOORD_0":70},"indices":71,"material":1}]}]}