{"asset":{"version":"2.0","generator":"Blockbench 4.12.3 glTF exporter"},"scenes":[{"nodes":[10],"name":"blockbench_export"}],"scene":0,"nodes":[{"name":"canopy","mesh":0},{"name":"cabin","mesh":1},{"name":"foot_right","mesh":2},{"name":"calf_left","mesh":3},{"name":"thigh_left","mesh":4},{"name":"foot_right","mesh":5},{"name":"calf_right","mesh":6},{"name":"cuboid","mesh":7},{"name":"cuboid","mesh":8},{"translation":[0,-0.4375,0],"name":"root","children":[0,1,2,3,4,5,6,7,8]},{"children":[9]}],"bufferViews":[{"buffer":0,"byteOffset":0,"byteLength":720,"target":34962,"byteStride":12},{"buffer":0,"byteOffset":720,"byteLength":720,"target":34962,"byteStride":12},{"buffer":0,"byteOffset":1440,"byteLength":480,"target":34962,"byteStride":8},{"buffer":0,"byteOffset":1920,"byteLength":120,"target":34963},{"buffer":0,"byteOffset":2040,"byteLength":3528,"target":34962,"byteStride":12},{"buffer":0,"byteOffset":5568,"byteLength":3528,"target":34962,"byteStride":12},{"buffer":0,"byteOffset":9096,"byteLength":2352,"target":34962,"byteStride":8},{"buffer":0,"byteOffset":11448,"byteLength":588,"target":34963},{"buffer":0,"byteOffset":12036,"byteLength":936,"target":34962,"byteStride":12},{"buffer":0,"byteOffset":12972,"byteLength":936,"target":34962,"byteStride":12},{"buffer":0,"byteOffset":13908,"byteLength":624,"target":34962,"byteStride":8},{"buffer":0,"byteOffset":14532,"byteLength":156,"target":34963},{"buffer":0,"byteOffset":14688,"byteLength":1296,"target":34962,"byteStride":12},{"buffer":0,"byteOffset":15984,"byteLength":1296,"target":34962,"byteStride":12},{"buffer":0,"byteOffset":17280,"byteLength":864,"target":34962,"byteStride":8},{"buffer":0,"byteOffset":18144,"byteLength":216,"target":34963},{"buffer":0,"byteOffset":18360,"byteLength":720,"target":34962,"byteStride":12},{"buffer":0,"byteOffset":19080,"byteLength":720,"target":34962,"byteStride":12},{"buffer":0,"byteOffset":19800,"byteLength":480,"target":34962,"byteStride":8},{"buffer":0,"byteOffset":20280,"byteLength":120,"target":34963},{"buffer":0,"byteOffset":20400,"byteLength":936,"target":34962,"byteStride":12},{"buffer":0,"byteOffset":21336,"byteLength":936,"target":34962,"byteStride":12},{"buffer":0,"byteOffset":22272,"byteLength":624,"target":34962,"byteStride":8},{"buffer":0,"byteOffset":22896,"byteLength":156,"target":34963},{"buffer":0,"byteOffset":23052,"byteLength":1296,"target":34962,"byteStride":12},{"buffer":0,"byteOffset":24348,"byteLength":1296,"target":34962,"byteStride":12},{"buffer":0,"byteOffset":25644,"byteLength":864,"target":34962,"byteStride":8},{"buffer":0,"byteOffset":26508,"byteLength":216,"target":34963},{"buffer":0,"byteOffset":26724,"byteLength":720,"target":34962,"byteStride":12},{"buffer":0,"byteOffset":27444,"byteLength":720,"target":34962,"byteStride":12},{"buffer":0,"byteOffset":28164,"byteLength":480,"target":34962,"byteStride":8},{"buffer":0,"byteOffset":28644,"byteLength":120,"target":34963},{"buffer":0,"byteOffset":28764,"byteLength":1008,"target":34962,"byteStride":12},{"buffer":0,"byteOffset":29772,"byteLength":1008,"target":34962,"byteStride":12},{"buffer":0,"byteOffset":30780,"byteLength":672,"target":34962,"byteStride":8},{"buffer":0,"byteOffset":31452,"byteLength":168,"target":34963}],"buffers":[{"byteLength":31620,"uri":"data:application/octet-stream;base64,"}],"accessors":[{"bufferView":0,"componentType":5126,"count":60,"max":[0.125,1.0625,0.4375],"min":[-0.125,0.8125,-0.375],"type":"VEC3"},{"bufferView":1,"componentType":5126,"count":60,"max":[1,1,0.4472135901451111],"min":[-1,0,-0.5547001957893372],"type":"VEC3"},{"bufferView":2,"componentType":5126,"count":60,"max":[0.39453125,1.383592128753662],"min":[0.111328125,1.125],"type":"VEC2"},{"bufferView":3,"componentType":5123,"count":60,"max":[59],"min":[0],"type":"SCALAR"},{"bufferView":4,"componentType":5126,"count":294,"max":[0.125,0.9375,0.4375],"min":[-0.125,0.6257267594337463,-0.447003573179245],"type":"VEC3"},{"bufferView":5,"componentType":5126,"count":294,"max":[1,1,1],"min":[-1,-1,-1],"type":"VEC3"},{"bufferView":6,"componentType":5126,"count":294,"max":[0.734375,1.5827813148498535],"min":[0,1],"type":"VEC2"},{"bufferView":7,"componentType":5123,"count":294,"max":[293],"min":[0],"type":"SCALAR"},{"bufferView":8,"componentType":5126,"count":78,"max":[0.28125,0.1519078016281128,0.226146399974823],"min":[0.09375,0.01981598138809204,-0.13474692404270172],"type":"VEC3"},{"bufferView":9,"componentType":5126,"count":78,"max":[1,0.9996632933616638,0.9598104357719421],"min":[-0.9983485341072083,-0.9868648052215576,-0.9992198348045349],"type":"VEC3"},{"bufferView":10,"componentType":5126,"count":78,"max":[0.6701961159706116,1.65625],"min":[0.25,1],"type":"VEC2"},{"bufferView":11,"componentType":5123,"count":78,"max":[77],"min":[0],"type":"SCALAR"},{"bufferView":12,"componentType":5126,"count":108,"max":[0.2562499940395355,0.7756151556968689,-0.0694473534822464],"min":[0.15625,0.10270056873559952,-0.7983622550964355],"type":"VEC3"},{"bufferView":13,"componentType":5126,"count":108,"max":[1,0.8153805732727051,0.9990481734275818],"min":[-1,-0.9990481734275818,-0.7618212103843689],"type":"VEC3"},{"bufferView":14,"componentType":5126,"count":108,"max":[0.690072774887085,1.6875],"min":[0.078125,1],"type":"VEC2"},{"bufferView":15,"componentType":5123,"count":108,"max":[107],"min":[0],"type":"SCALAR"},{"bufferView":16,"componentType":5126,"count":60,"max":[0.2750000059604645,0.8056929707527161,-0.05577794462442398],"min":[0.08749999850988388,0.4648244082927704,-0.4787273406982422],"type":"VEC3"},{"bufferView":17,"componentType":5126,"count":60,"max":[1,0.8992910981178284,0.7933534383773804],"min":[-1,-0.8735897541046143,-0.7734137177467346],"type":"VEC3"},{"bufferView":18,"componentType":5126,"count":60,"max":[0.65625,1.5234375],"min":[0.001953125,1],"type":"VEC2"},{"bufferView":19,"componentType":5123,"count":60,"max":[59],"min":[0],"type":"SCALAR"},{"bufferView":20,"componentType":5126,"count":78,"max":[-0.09375,0.1519078016281128,0.226146399974823],"min":[-0.28125,0.01981598138809204,-0.13474692404270172],"type":"VEC3"},{"bufferView":21,"componentType":5126,"count":78,"max":[0.9983485341072083,0.9996632933616638,0.9598104357719421],"min":[-1,-0.9868648052215576,-0.9992198348045349],"type":"VEC3"},{"bufferView":22,"componentType":5126,"count":78,"max":[0.686718761920929,1.6875],"min":[0.078125,1.0011584758758545],"type":"VEC2"},{"bufferView":23,"componentType":5123,"count":78,"max":[77],"min":[0],"type":"SCALAR"},{"bufferView":24,"componentType":5126,"count":108,"max":[-0.15625,0.7756151556968689,-0.0694473534822464],"min":[-0.2562499940395355,0.10270056873559952,-0.7983622550964355],"type":"VEC3"},{"bufferView":25,"componentType":5126,"count":108,"max":[1,0.8153805732727051,0.9990481734275818],"min":[-1,-0.9990481734275818,-0.7618212103843689],"type":"VEC3"},{"bufferView":26,"componentType":5126,"count":108,"max":[0.705697774887085,1.70703125],"min":[0.0011718750465661287,1.078125],"type":"VEC2"},{"bufferView":27,"componentType":5123,"count":108,"max":[107],"min":[0],"type":"SCALAR"},{"bufferView":28,"componentType":5126,"count":60,"max":[-0.08749999850988388,0.8056929707527161,-0.05577794462442398],"min":[-0.2750000059604645,0.4648244082927704,-0.4787273406982422],"type":"VEC3"},{"bufferView":29,"componentType":5126,"count":60,"max":[1,0.8992910981178284,0.7933534383773804],"min":[-1,-0.8735897541046143,-0.7734137177467346],"type":"VEC3"},{"bufferView":30,"componentType":5126,"count":60,"max":[0.703125,1.5505656003952026],"min":[0.064453125,1],"type":"VEC2"},{"bufferView":31,"componentType":5123,"count":60,"max":[59],"min":[0],"type":"SCALAR"},{"bufferView":32,"componentType":5126,"count":84,"max":[0.0625,0.9768897294998169,0.0625],"min":[-0.0625,0.7803323864936829,-0.10553786158561707],"type":"VEC3"},{"bufferView":33,"componentType":5126,"count":84,"max":[1,1,1],"min":[-1,-1,-0.9980331063270569],"type":"VEC3"},{"bufferView":34,"componentType":5126,"count":84,"max":[0.6875,1.67578125],"min":[0.203125,1.1131359338760376],"type":"VEC2"},{"bufferView":35,"componentType":5123,"count":84,"max":[83],"min":[0],"type":"SCALAR"}],"materials":[{"pbrMetallicRoughness":{"metallicFactor":0,"roughnessFactor":1},"alphaMode":"MASK","alphaCutoff":0.05,"doubleSided":true}],"meshes":[{"primitives":[{"mode":4,"attributes":{"POSITION":0,"NORMAL":1,"TEXCOORD_0":2},"indices":3,"material":0}]},{"primitives":[{"mode":4,"attributes":{"POSITION":4,"NORMAL":5,"TEXCOORD_0":6},"indices":7,"material":0}]},{"primitives":[{"mode":4,"attributes":{"POSITION":8,"NORMAL":9,"TEXCOORD_0":10},"indices":11,"material":0}]},{"primitives":[{"mode":4,"attributes":{"POSITION":12,"NORMAL":13,"TEXCOORD_0":14},"indices":15,"material":0}]},{"primitives":[{"mode":4,"attributes":{"POSITION":16,"NORMAL":17,"TEXCOORD_0":18},"indices":19,"material":0}]},{"primitives":[{"mode":4,"attributes":{"POSITION":20,"NORMAL":21,"TEXCOORD_0":22},"indices":23,"material":0}]},{"primitives":[{"mode":4,"attributes":{"POSITION":24,"NORMAL":25,"TEXCOORD_0":26},"indices":27,"material":0}]},{"primitives":[{"mode":4,"attributes":{"POSITION":28,"NORMAL":29,"TEXCOORD_0":30},"indices":31,"material":0}]},{"primitives":[{"mode":4,"attributes":{"POSITION":32,"NORMAL":33,"TEXCOORD_0":34},"indices":35,"material":0}]}]}