{"asset":{"version":"2.0","generator":"Blockbench 4.12.3 glTF exporter"},"scenes":[{"nodes":[2],"name":"blockbench_export"}],"scene":0,"nodes":[{"name":"cuboid","mesh":0},{"name":"bone","children":[0]},{"children":[1]}],"bufferViews":[{"buffer":0,"byteOffset":0,"byteLength":7776,"target":34962,"byteStride":12},{"buffer":0,"byteOffset":7776,"byteLength":7776,"target":34962,"byteStride":12},{"buffer":0,"byteOffset":15552,"byteLength":5184,"target":34962,"byteStride":8},{"buffer":0,"byteOffset":20736,"byteLength":1932,"target":34963},{"buffer":0,"byteOffset":22668,"byteLength":144},{"buffer":0,"byteOffset":22812,"byteLength":576},{"buffer":0,"byteOffset":23388,"byteLength":108},{"buffer":0,"byteOffset":23496,"byteLength":324},{"buffer":0,"byteOffset":23820,"byteLength":20},{"buffer":0,"byteOffset":23840,"byteLength":60},{"buffer":0,"byteOffset":23900,"byteLength":256},{"buffer":0,"byteOffset":24156,"byteLength":1024},{"buffer":0,"byteOffset":25180,"byteLength":256},{"buffer":0,"byteOffset":25436,"byteLength":768}],"buffers":[{"byteLength":26204,"uri":"data:application/octet-stream;base64,"}],"accessors":[{"bufferView":0,"componentType":5126,"count":648,"max":[0.3051496148109436,0.6033753752708435,0.4375],"min":[-0.2878649830818176,0,-0.6615020632743835],"type":"VEC3"},{"bufferView":1,"componentType":5126,"count":648,"max":[1,1,0.9922778606414795],"min":[-1,-1,-1],"type":"VEC3"},{"bufferView":2,"componentType":5126,"count":648,"max":[0.9984147548675537,1],"min":[0,0.024683713912963867],"type":"VEC2"},{"bufferView":3,"componentType":5123,"count":966,"max":[647],"min":[0],"type":"SCALAR"},{"bufferView":4,"componentType":5126,"count":36,"max":[2],"min":[0],"type":"SCALAR"},{"bufferView":5,"componentType":5126,"count":36,"max":[0.1112048551440239,0.09923291206359863,0.0046553961001336575,1],"min":[-0.019980618730187416,-0.10886687785387039,-0.0017958382377400994,0.9929169416427612],"type":"VEC4"},{"bufferView":6,"componentType":5126,"count":27,"max":[2],"min":[0],"type":"SCALAR"},{"bufferView":7,"componentType":5126,"count":27,"max":[0,0.06307128816843033,0.01373291015625],"min":[0,0,-0.1875],"type":"VEC3"},{"bufferView":8,"componentType":5126,"count":5,"max":[2],"min":[0],"type":"SCALAR"},{"bufferView":9,"componentType":5126,"count":5,"max":[1,1,1],"min":[1,1,1],"type":"VEC3"},{"bufferView":10,"componentType":5126,"count":64,"max":[4],"min":[0],"type":"SCALAR"},{"bufferView":11,"componentType":5126,"count":64,"max":[-0.15162985026836395,0.009679953567683697,0.013910546898841858,0.9884292483329773],"min":[-0.19509032368659973,-0.0639066994190216,-0.001162375439889729,0.9807852506637573],"type":"VEC4"},{"bufferView":12,"componentType":5126,"count":64,"max":[4],"min":[0],"type":"SCALAR"},{"bufferView":13,"componentType":5126,"count":64,"max":[0,-0.09993191063404083,0],"min":[0,-0.10631430149078369,0],"type":"VEC3"}],"materials":[{"pbrMetallicRoughness":{"metallicFactor":0,"roughnessFactor":1,"baseColorTexture":{"index":0}},"alphaMode":"MASK","alphaCutoff":0.05,"doubleSided":true}],"textures":[{"sampler":0,"source":0,"name":"womprat_texture"}],"samplers":[{"magFilter":9728,"minFilter":9728,"wrapS":33071,"wrapT":33071}],"images":[{"mimeType":"image/png","uri":"data:image/png;base64,"}],"meshes":[{"primitives":[{"mode":4,"attributes":{"POSITION":0,"NORMAL":1,"TEXCOORD_0":2},"indices":3,"material":0}]}],"animations":[{"name":"attack","samplers":[{"input":4,"output":5,"interpolation":"LINEAR"},{"input":6,"output":7,"interpolation":"LINEAR"},{"input":8,"output":9,"interpolation":"LINEAR"}],"channels":[{"sampler":0,"target":{"node":1,"path":"rotation"}},{"sampler":1,"target":{"node":1,"path":"translation"}},{"sampler":2,"target":{"node":1,"path":"scale"}}]},{"name":"eat","samplers":[{"input":10,"output":11,"interpolation":"LINEAR"},{"input":12,"output":13,"interpolation":"LINEAR"}],"channels":[{"sampler":0,"target":{"node":1,"path":"rotation"}},{"sampler":1,"target":{"node":1,"path":"translation"}}]}]}