{"asset":{"version":"2.0","generator":"Blockbench 4.12.2 glTF exporter"},"scenes":[{"nodes":[2],"name":"blockbench_export"}],"scene":0,"nodes":[{"translation":[0,0,0.125],"name":"cuboid","mesh":0},{"name":"bone","children":[0]},{"children":[1]}],"bufferViews":[{"buffer":0,"byteOffset":0,"byteLength":4092,"target":34962,"byteStride":12},{"buffer":0,"byteOffset":4092,"byteLength":4092,"target":34962,"byteStride":12},{"buffer":0,"byteOffset":8184,"byteLength":2728,"target":34962,"byteStride":8},{"buffer":0,"byteOffset":10912,"byteLength":896,"target":34963}],"buffers":[{"byteLength":11808,"uri":"data:application/octet-stream;base64,"}],"accessors":[{"bufferView":0,"componentType":5126,"count":341,"max":[0.23169417679309845,1.5,0.10669417679309845],"min":[-0.23169417679309845,-0.3125,-0.35669416189193726],"type":"VEC3"},{"bufferView":1,"componentType":5126,"count":341,"max":[1,1,1],"min":[-1,-1,-1],"type":"VEC3"},{"bufferView":2,"componentType":5126,"count":341,"max":[0.671875,0.828125],"min":[0,0],"type":"VEC2"},{"bufferView":3,"componentType":5123,"count":447,"max":[340],"min":[0],"type":"SCALAR"}],"materials":[{"pbrMetallicRoughness":{"metallicFactor":0,"roughnessFactor":1,"baseColorTexture":{"index":0}},"alphaMode":"MASK","alphaCutoff":0.05,"doubleSided":true}],"textures":[{"sampler":0,"source":0,"name":"beacon_tower"}],"samplers":[{"magFilter":9728,"minFilter":9728,"wrapS":33071,"wrapT":33071}],"images":[{"mimeType":"image/png","uri":"data:image/png;base64,"}],"meshes":[{"primitives":[{"mode":4,"attributes":{"POSITION":0,"NORMAL":1,"TEXCOORD_0":2},"indices":3,"material":0}]}]}