{"asset":{"version":"2.0","generator":"Blockbench 4.10.4 glTF exporter"},"scenes":[{"nodes":[2],"name":"blockbench_export"}],"scene":0,"nodes":[{"translation":[0,0.1875,0],"name":"cuboid","mesh":0},{"name":"root","children":[0]},{"children":[1]}],"bufferViews":[{"buffer":0,"byteOffset":0,"byteLength":7008,"target":34962,"byteStride":12},{"buffer":0,"byteOffset":7008,"byteLength":7008,"target":34962,"byteStride":12},{"buffer":0,"byteOffset":14016,"byteLength":4672,"target":34962,"byteStride":8},{"buffer":0,"byteOffset":18688,"byteLength":1752,"target":34963}],"buffers":[{"byteLength":20440,"uri":"data:application/octet-stream;base64,"}],"accessors":[{"bufferView":0,"componentType":5126,"count":584,"max":[0.9375,1.1875,1.0104166269302368],"min":[-1.3119510412216187,-0.2734364867210388,-1.5],"type":"VEC3"},{"bufferView":1,"componentType":5126,"count":584,"max":[0.9892094135284424,0.9957757592201233,0.9982133507728577],"min":[-0.9883716702461243,-0.8334340453147888,-0.9869112968444824],"type":"VEC3"},{"bufferView":2,"componentType":5126,"count":584,"max":[0.5699236392974854,0.5827690362930298],"min":[0,0],"type":"VEC2"},{"bufferView":3,"componentType":5123,"count":876,"max":[583],"min":[0],"type":"SCALAR"}],"materials":[{"pbrMetallicRoughness":{"metallicFactor":0,"roughnessFactor":1,"baseColorTexture":{"index":0}},"alphaMode":"MASK","alphaCutoff":0.05,"doubleSided":true}],"textures":[{"sampler":0,"source":0,"name":"boulder_ledge_texture.png"}],"samplers":[{"magFilter":9728,"minFilter":9728,"wrapS":33071,"wrapT":33071}],"images":[{"mimeType":"image/png","uri":"data:image/png;base64,"}],"meshes":[{"primitives":[{"mode":4,"attributes":{"POSITION":0,"NORMAL":1,"TEXCOORD_0":2},"indices":3,"material":0}]}]}