{"asset":{"version":"2.0","generator":"Blockbench 4.10.4 glTF exporter"},"scenes":[{"nodes":[2],"name":"blockbench_export"}],"scene":0,"nodes":[{"name":"cuboid","mesh":0},{"name":"root","children":[0]},{"children":[1]}],"bufferViews":[{"buffer":0,"byteOffset":0,"byteLength":6072,"target":34962,"byteStride":12},{"buffer":0,"byteOffset":6072,"byteLength":6072,"target":34962,"byteStride":12},{"buffer":0,"byteOffset":12144,"byteLength":4048,"target":34962,"byteStride":8},{"buffer":0,"byteOffset":16192,"byteLength":1500,"target":34963}],"buffers":[{"byteLength":17692,"uri":"data:application/octet-stream;base64,"}],"accessors":[{"bufferView":0,"componentType":5126,"count":506,"max":[1.1875,1.3125,1.375],"min":[-1.15625,0,-1.125],"type":"VEC3"},{"bufferView":1,"componentType":5126,"count":506,"max":[0.9980525970458984,1,1],"min":[-0.9920405149459839,-1,-0.9973005056381226],"type":"VEC3"},{"bufferView":2,"componentType":5126,"count":506,"max":[0.640625,0.6146869659423828],"min":[0,0],"type":"VEC2"},{"bufferView":3,"componentType":5123,"count":750,"max":[505],"min":[0],"type":"SCALAR"}],"materials":[{"pbrMetallicRoughness":{"metallicFactor":0,"roughnessFactor":1,"baseColorTexture":{"index":0}},"alphaMode":"MASK","alphaCutoff":0.05,"doubleSided":true}],"textures":[{"sampler":0,"source":0,"name":"boulder_jj_texture"}],"samplers":[{"magFilter":9728,"minFilter":9728,"wrapS":33071,"wrapT":33071}],"images":[{"mimeType":"image/png","uri":"data:image/png;base64,"}],"meshes":[{"primitives":[{"mode":4,"attributes":{"POSITION":0,"NORMAL":1,"TEXCOORD_0":2},"indices":3,"material":0}]}]}