{"asset":{"version":"2.0","generator":"Blockbench 4.11.2 glTF exporter"},"scenes":[{"nodes":[1],"name":"blockbench_export"}],"scene":0,"nodes":[{"rotation":[0,0.7372773368101241,0,0.6755902076156602],"translation":[-0.25,0.0625,0],"name":"cuboid","mesh":0},{"children":[0]}],"bufferViews":[{"buffer":0,"byteOffset":0,"byteLength":1692,"target":34962,"byteStride":12},{"buffer":0,"byteOffset":1692,"byteLength":1692,"target":34962,"byteStride":12},{"buffer":0,"byteOffset":3384,"byteLength":1128,"target":34962,"byteStride":8},{"buffer":0,"byteOffset":4512,"byteLength":284,"target":34963}],"buffers":[{"byteLength":4796,"uri":"data:application/octet-stream;base64,"}],"accessors":[{"bufferView":0,"componentType":5126,"count":141,"max":[0.3682399392127991,0.981249988079071,0.6239835023880005],"min":[-0.6462799310684204,-0.0625,-0.40019524097442627],"type":"VEC3"},{"bufferView":1,"componentType":5126,"count":141,"max":[0.9837050437927246,0.6889234781265259,0.9359087944030762],"min":[-0.9706833362579346,-0.5981007814407349,-0.9923619627952576],"type":"VEC3"},{"bufferView":2,"componentType":5126,"count":141,"max":[0.921875,0.96875],"min":[0.006240257062017918,0],"type":"VEC2"},{"bufferView":3,"componentType":5123,"count":141,"max":[140],"min":[0],"type":"SCALAR"}],"materials":[{"pbrMetallicRoughness":{"metallicFactor":0,"roughnessFactor":1,"baseColorTexture":{"index":0}},"alphaMode":"MASK","alphaCutoff":0.05,"doubleSided":true}],"textures":[{"sampler":0,"source":0,"name":"bush_texture"}],"samplers":[{"magFilter":9728,"minFilter":9728,"wrapS":33071,"wrapT":33071}],"images":[{"mimeType":"image/png","uri":"data:image/png;base64,"}],"meshes":[{"primitives":[{"mode":4,"attributes":{"POSITION":0,"NORMAL":1,"TEXCOORD_0":2},"indices":3,"material":0}]}]}