{"asset":{"version":"2.0","generator":"Blockbench 4.12.2 glTF exporter"},"scenes":[{"nodes":[2],"name":"blockbench_export"}],"scene":0,"nodes":[{"name":"cuboid","mesh":0},{"name":"bone","children":[0]},{"children":[1]}],"bufferViews":[{"buffer":0,"byteOffset":0,"byteLength":2748,"target":34962,"byteStride":12},{"buffer":0,"byteOffset":2748,"byteLength":2748,"target":34962,"byteStride":12},{"buffer":0,"byteOffset":5496,"byteLength":1832,"target":34962,"byteStride":8},{"buffer":0,"byteOffset":7328,"byteLength":608,"target":34963}],"buffers":[{"byteLength":7936,"uri":"data:application/octet-stream;base64,"}],"accessors":[{"bufferView":0,"componentType":5126,"count":229,"max":[0.17499999701976776,1.7774449586868286,0.16875000298023224],"min":[-0.17499999701976776,0,-0.6671837568283081],"type":"VEC3"},{"bufferView":1,"componentType":5126,"count":229,"max":[1,0.9908643364906311,1],"min":[-1,-0.9929625988006592,-1],"type":"VEC3"},{"bufferView":2,"componentType":5126,"count":229,"max":[0.8812500238418579,0.987500011920929],"min":[0,0],"type":"VEC2"},{"bufferView":3,"componentType":5123,"count":303,"max":[228],"min":[0],"type":"SCALAR"}],"materials":[{"pbrMetallicRoughness":{"metallicFactor":0,"roughnessFactor":1,"baseColorTexture":{"index":0}},"alphaMode":"MASK","alphaCutoff":0.05,"doubleSided":true}],"textures":[{"sampler":0,"source":0,"name":"lamp_texture"}],"samplers":[{"magFilter":9728,"minFilter":9728,"wrapS":33071,"wrapT":33071}],"images":[{"mimeType":"image/png","uri":"data:image/png;base64,"}],"meshes":[{"primitives":[{"mode":4,"attributes":{"POSITION":0,"NORMAL":1,"TEXCOORD_0":2},"indices":3,"material":0}]}]}