{"asset":{"version":"2.0","generator":"Blockbench 4.11.1 glTF exporter"},"scenes":[{"nodes":[2],"name":"blockbench_export"}],"scene":0,"nodes":[{"name":"root"},{"translation":[0,0.5,0],"name":"plane","mesh":0},{"children":[0,1]}],"bufferViews":[{"buffer":0,"byteOffset":0,"byteLength":55488,"target":34962,"byteStride":12},{"buffer":0,"byteOffset":55488,"byteLength":55488,"target":34962,"byteStride":12},{"buffer":0,"byteOffset":110976,"byteLength":36992,"target":34962,"byteStride":8},{"buffer":0,"byteOffset":147968,"byteLength":13872,"target":34963}],"buffers":[{"byteLength":161840,"uri":"data:application/octet-stream;base64,"}],"accessors":[{"bufferView":0,"componentType":5126,"count":4624,"max":[1.5,0,1.5],"min":[-1.5,-0.4375,-1.5],"type":"VEC3"},{"bufferView":1,"componentType":5126,"count":4624,"max":[0.9429929256439209,1,0.9429903626441956],"min":[-0.9429929256439209,0.24213744699954987,-0.9429903626441956],"type":"VEC3"},{"bufferView":2,"componentType":5126,"count":4624,"max":[0.99609375,0.29296875],"min":[0.00390625,0.00390625],"type":"VEC2"},{"bufferView":3,"componentType":5123,"count":6936,"max":[4623],"min":[0],"type":"SCALAR"}],"materials":[{"pbrMetallicRoughness":{"metallicFactor":0,"roughnessFactor":1,"baseColorTexture":{"index":0}},"alphaMode":"MASK","alphaCutoff":0.05,"doubleSided":true}],"textures":[{"sampler":0,"source":0,"name":"texture"}],"samplers":[{"magFilter":9728,"minFilter":9728,"wrapS":33071,"wrapT":33071}],"images":[{"mimeType":"image/png","uri":"data:image/png;base64,"}],"meshes":[{"primitives":[{"mode":4,"attributes":{"POSITION":0,"NORMAL":1,"TEXCOORD_0":2},"indices":3,"material":0}]}]}