{"asset":{"version":"2.0","generator":"Blockbench 4.11.2 glTF exporter"},"scenes":[{"nodes":[4],"name":"blockbench_export"}],"scene":0,"nodes":[{"translation":[0,0.0625,0],"name":"enclosure","mesh":0},{"name":"tree","mesh":1},{"translation":[0.025,0.45625000000000004,0.018750000000000003],"name":"leaves","mesh":2},{"name":"bone","children":[0,1,2]},{"children":[3]}],"bufferViews":[{"buffer":0,"byteOffset":0,"byteLength":624,"target":34962,"byteStride":12},{"buffer":0,"byteOffset":624,"byteLength":624,"target":34962,"byteStride":12},{"buffer":0,"byteOffset":1248,"byteLength":416,"target":34962,"byteStride":8},{"buffer":0,"byteOffset":1664,"byteLength":156,"target":34963},{"buffer":0,"byteOffset":1820,"byteLength":8544,"target":34962,"byteStride":12},{"buffer":0,"byteOffset":10364,"byteLength":8544,"target":34962,"byteStride":12},{"buffer":0,"byteOffset":18908,"byteLength":5696,"target":34962,"byteStride":8},{"buffer":0,"byteOffset":24604,"byteLength":2136,"target":34963},{"buffer":0,"byteOffset":26740,"byteLength":3072,"target":34962,"byteStride":12},{"buffer":0,"byteOffset":29812,"byteLength":3072,"target":34962,"byteStride":12},{"buffer":0,"byteOffset":32884,"byteLength":2048,"target":34962,"byteStride":8},{"buffer":0,"byteOffset":34932,"byteLength":768,"target":34963}],"buffers":[{"byteLength":35700,"uri":"data:application/octet-stream;base64,"}],"accessors":[{"bufferView":0,"componentType":5126,"count":52,"max":[0.3125,0,0.3125],"min":[-0.3125,-0.0625,-0.3125],"type":"VEC3"},{"bufferView":1,"componentType":5126,"count":52,"max":[1,1,1],"min":[-1,0,-1],"type":"VEC3"},{"bufferView":2,"componentType":5126,"count":52,"max":[0.65625,0.625],"min":[0,0],"type":"VEC2"},{"bufferView":3,"componentType":5123,"count":78,"max":[51],"min":[0],"type":"SCALAR"},{"bufferView":4,"componentType":5126,"count":712,"max":[0.2582077383995056,0.6849774718284607,0.1862385869026184],"min":[-0.27754223346710205,0,-0.2983366847038269],"type":"VEC3"},{"bufferView":5,"componentType":5126,"count":712,"max":[1,0.9905707240104675,0.9986666440963745],"min":[-1,-0.9981353282928467,-0.9998611211776733],"type":"VEC3"},{"bufferView":6,"componentType":5126,"count":712,"max":[0.71875,0.781598687171936],"min":[0.0016145861009135842,0],"type":"VEC2"},{"bufferView":7,"componentType":5123,"count":1068,"max":[711],"min":[0],"type":"SCALAR"},{"bufferView":8,"componentType":5126,"count":256,"max":[0.33125001192092896,0.48750001192092896,0.26875022053718567],"min":[-0.36250001192092896,0.09687499701976776,-0.36250072717666626],"type":"VEC3"},{"bufferView":9,"componentType":5126,"count":256,"max":[0.98712158203125,0.9929020404815674,0.9938148856163025],"min":[-0.9707396626472473,-0.9927671551704407,-0.9412193298339844],"type":"VEC3"},{"bufferView":10,"componentType":5126,"count":256,"max":[0.7851127982139587,0.6875],"min":[0.0048125809989869595,0],"type":"VEC2"},{"bufferView":11,"componentType":5123,"count":384,"max":[255],"min":[0],"type":"SCALAR"}],"materials":[{"pbrMetallicRoughness":{"metallicFactor":0,"roughnessFactor":1,"baseColorTexture":{"index":0}},"alphaMode":"MASK","alphaCutoff":0.05,"doubleSided":true},{"pbrMetallicRoughness":{"metallicFactor":0,"roughnessFactor":1,"baseColorTexture":{"index":1}},"alphaMode":"MASK","alphaCutoff":0.05,"doubleSided":true},{"pbrMetallicRoughness":{"metallicFactor":0,"roughnessFactor":1,"baseColorTexture":{"index":2}},"alphaMode":"MASK","alphaCutoff":0.05,"doubleSided":true}],"textures":[{"sampler":0,"source":0,"name":"tree_enclosure_texture"},{"sampler":1,"source":1,"name":"tree_texture"},{"sampler":2,"source":2,"name":"tree_leaves_texture"}],"samplers":[{"magFilter":9728,"minFilter":9728,"wrapS":33071,"wrapT":33071},{"magFilter":9728,"minFilter":9728,"wrapS":33071,"wrapT":33071},{"magFilter":9728,"minFilter":9728,"wrapS":33071,"wrapT":33071}],"images":[{"mimeType":"image/png","uri":"data:image/png;base64,"},{"mimeType":"image/png","uri":"data:image/png;base64,"},{"mimeType":"image/png","uri":"data:image/png;base64,"}],"meshes":[{"primitives":[{"mode":4,"attributes":{"POSITION":0,"NORMAL":1,"TEXCOORD_0":2},"indices":3,"material":0}]},{"primitives":[{"mode":4,"attributes":{"POSITION":4,"NORMAL":5,"TEXCOORD_0":6},"indices":7,"material":1}]},{"primitives":[{"mode":4,"attributes":{"POSITION":8,"NORMAL":9,"TEXCOORD_0":10},"indices":11,"material":2}]}]}