{"asset":{"version":"2.0","generator":"Blockbench 4.12.3 glTF exporter"},"scenes":[{"nodes":[5],"name":"blockbench_export"}],"scene":0,"nodes":[{"translation":[0,0.75,0],"name":"rotator","mesh":0},{"translation":[0,-0.375,0],"name":"rotator","children":[0]},{"translation":[0,0.375,0],"name":"base","mesh":1},{"translation":[0,-0.375,0],"name":"base","children":[2]},{"translation":[0,0.375,0],"name":"root","children":[1,3]},{"children":[4]}],"bufferViews":[{"buffer":0,"byteOffset":0,"byteLength":480,"target":34962,"byteStride":12},{"buffer":0,"byteOffset":480,"byteLength":480,"target":34962,"byteStride":12},{"buffer":0,"byteOffset":960,"byteLength":320,"target":34962,"byteStride":8},{"buffer":0,"byteOffset":1280,"byteLength":120,"target":34963},{"buffer":0,"byteOffset":1400,"byteLength":2352,"target":34962,"byteStride":12},{"buffer":0,"byteOffset":3752,"byteLength":2352,"target":34962,"byteStride":12},{"buffer":0,"byteOffset":6104,"byteLength":1568,"target":34962,"byteStride":8},{"buffer":0,"byteOffset":7672,"byteLength":564,"target":34963},{"buffer":0,"byteOffset":8236,"byteLength":12},{"buffer":0,"byteOffset":8248,"byteLength":48},{"buffer":0,"byteOffset":8296,"byteLength":12},{"buffer":0,"byteOffset":8308,"byteLength":48},{"buffer":0,"byteOffset":8356,"byteLength":156},{"buffer":0,"byteOffset":8512,"byteLength":624},{"buffer":0,"byteOffset":9136,"byteLength":12},{"buffer":0,"byteOffset":9148,"byteLength":48}],"buffers":[{"byteLength":9196,"uri":"data:application/octet-stream;base64,"}],"accessors":[{"bufferView":0,"componentType":5126,"count":40,"max":[0.5,0.02500000037252903,0.06875000149011612],"min":[-0.5,0,-0.06875000149011612],"type":"VEC3"},{"bufferView":1,"componentType":5126,"count":40,"max":[1,0.9999218583106995,0.9947246313095093],"min":[-1,-0.9999218583106995,-0.9947246313095093],"type":"VEC3"},{"bufferView":2,"componentType":5126,"count":40,"max":[1,1],"min":[0.75,0.25],"type":"VEC2"},{"bufferView":3,"componentType":5123,"count":60,"max":[39],"min":[0],"type":"SCALAR"},{"bufferView":4,"componentType":5126,"count":196,"max":[0.125,0.375,0.125],"min":[-0.125,-0.375,-0.125],"type":"VEC3"},{"bufferView":5,"componentType":5126,"count":196,"max":[1,1,1],"min":[-1,-1,-1],"type":"VEC3"},{"bufferView":6,"componentType":5126,"count":196,"max":[0.4375,0.625],"min":[0,0],"type":"VEC2"},{"bufferView":7,"componentType":5123,"count":282,"max":[195],"min":[0],"type":"SCALAR"},{"bufferView":8,"componentType":5126,"count":3,"max":[1],"min":[0],"type":"SCALAR"},{"bufferView":9,"componentType":5126,"count":3,"max":[0,0,0,1],"min":[0,0,0,1],"type":"VEC4"},{"bufferView":10,"componentType":5126,"count":3,"max":[2],"min":[0],"type":"SCALAR"},{"bufferView":11,"componentType":5126,"count":3,"max":[0,0,0,1],"min":[0,-1,0,6.123234262925839e-17],"type":"VEC4"},{"bufferView":12,"componentType":5126,"count":39,"max":[2],"min":[0],"type":"SCALAR"},{"bufferView":13,"componentType":5126,"count":39,"max":[0,0,0,1],"min":[0,-1,0,6.123234262925839e-17],"type":"VEC4"},{"bufferView":14,"componentType":5126,"count":3,"max":[2],"min":[0],"type":"SCALAR"},{"bufferView":15,"componentType":5126,"count":3,"max":[0,0,0,1],"min":[0,0,0,1],"type":"VEC4"}],"materials":[{"pbrMetallicRoughness":{"metallicFactor":0,"roughnessFactor":1,"baseColorTexture":{"index":0}},"alphaMode":"MASK","alphaCutoff":0.05,"doubleSided":true}],"textures":[{"sampler":0,"source":0,"name":"tower_light_texture"}],"samplers":[{"magFilter":9728,"minFilter":9728,"wrapS":33071,"wrapT":33071}],"images":[{"mimeType":"image/png","uri":"data:image/png;base64,"}],"meshes":[{"primitives":[{"mode":4,"attributes":{"POSITION":0,"NORMAL":1,"TEXCOORD_0":2},"indices":3,"material":0}]},{"primitives":[{"mode":4,"attributes":{"POSITION":4,"NORMAL":5,"TEXCOORD_0":6},"indices":7,"material":0}]}],"animations":[{"name":"rotate","samplers":[{"input":8,"output":9,"interpolation":"LINEAR"},{"input":10,"output":11,"interpolation":"LINEAR"}],"channels":[{"sampler":0,"target":{"node":4,"path":"rotation"}},{"sampler":1,"target":{"node":1,"path":"rotation"}}]},{"name":"begin_rotating","samplers":[{"input":12,"output":13,"interpolation":"LINEAR"}],"channels":[{"sampler":0,"target":{"node":1,"path":"rotation"}}]},{"name":"idle","samplers":[{"input":14,"output":15,"interpolation":"LINEAR"}],"channels":[{"sampler":0,"target":{"node":1,"path":"rotation"}}]}]}