{"asset":{"version":"2.0","generator":"Blockbench 4.11.1 glTF exporter"},"scenes":[{"nodes":[16],"name":"blockbench_export"}],"scene":0,"nodes":[{"name":"concrete","mesh":0},{"rotation":[-8.364493191492917e-17,-0.8660254037844387,-8.364493191492917e-17,-0.49999999999999994],"translation":[-0.00006011839520891904,4.95625,-0.00010412811497126362],"name":"top","mesh":1},{"rotation":[0.5000000000000038,0.49999999999999956,-0.4999999999999959,0.5000000000000009],"translation":[-0.02506011839520903,5.4875,-0.018854128114971266],"name":"crossbeam","mesh":2},{"translation":[0.025,0,0],"name":"antenna","children":[2]},{"translation":[0,0.0625,0],"name":"top","children":[1,3]},{"translation":[0.16249999999999998,0.125,0.09374999999999997],"name":"riser3","mesh":3},{"translation":[0,0.0625,0],"name":"level1","children":[5]},{"name":"base","mesh":4},{"translation":[0,1,0],"name":"level2","children":[7]},{"name":"base","mesh":5},{"translation":[0,1.9375,0],"name":"level3","children":[9]},{"name":"base","mesh":6},{"translation":[0,2.875,0],"name":"level4","children":[11]},{"name":"base","mesh":7},{"translation":[0,3.8125,0],"name":"level5","children":[13]},{"name":"root","children":[0,4,6,8,10,12,14]},{"children":[15]}],"bufferViews":[{"buffer":0,"byteOffset":0,"byteLength":288,"target":34962,"byteStride":12},{"buffer":0,"byteOffset":288,"byteLength":288,"target":34962,"byteStride":12},{"buffer":0,"byteOffset":576,"byteLength":192,"target":34962,"byteStride":8},{"buffer":0,"byteOffset":768,"byteLength":72,"target":34963},{"buffer":0,"byteOffset":840,"byteLength":720,"target":34962,"byteStride":12},{"buffer":0,"byteOffset":1560,"byteLength":720,"target":34962,"byteStride":12},{"buffer":0,"byteOffset":2280,"byteLength":480,"target":34962,"byteStride":8},{"buffer":0,"byteOffset":2760,"byteLength":144,"target":34963},{"buffer":0,"byteOffset":2904,"byteLength":3240,"target":34962,"byteStride":12},{"buffer":0,"byteOffset":6144,"byteLength":3240,"target":34962,"byteStride":12},{"buffer":0,"byteOffset":9384,"byteLength":2160,"target":34962,"byteStride":8},{"buffer":0,"byteOffset":11544,"byteLength":648,"target":34963},{"buffer":0,"byteOffset":12192,"byteLength":2520,"target":34962,"byteStride":12},{"buffer":0,"byteOffset":14712,"byteLength":2520,"target":34962,"byteStride":12},{"buffer":0,"byteOffset":17232,"byteLength":1680,"target":34962,"byteStride":8},{"buffer":0,"byteOffset":18912,"byteLength":504,"target":34963},{"buffer":0,"byteOffset":19416,"byteLength":2520,"target":34962,"byteStride":12},{"buffer":0,"byteOffset":21936,"byteLength":2520,"target":34962,"byteStride":12},{"buffer":0,"byteOffset":24456,"byteLength":1680,"target":34962,"byteStride":8},{"buffer":0,"byteOffset":26136,"byteLength":504,"target":34963},{"buffer":0,"byteOffset":26640,"byteLength":2520,"target":34962,"byteStride":12},{"buffer":0,"byteOffset":29160,"byteLength":2520,"target":34962,"byteStride":12},{"buffer":0,"byteOffset":31680,"byteLength":1680,"target":34962,"byteStride":8},{"buffer":0,"byteOffset":33360,"byteLength":504,"target":34963},{"buffer":0,"byteOffset":33864,"byteLength":2520,"target":34962,"byteStride":12},{"buffer":0,"byteOffset":36384,"byteLength":2520,"target":34962,"byteStride":12},{"buffer":0,"byteOffset":38904,"byteLength":1680,"target":34962,"byteStride":8},{"buffer":0,"byteOffset":40584,"byteLength":504,"target":34963},{"buffer":0,"byteOffset":41088,"byteLength":2520,"target":34962,"byteStride":12},{"buffer":0,"byteOffset":43608,"byteLength":2520,"target":34962,"byteStride":12},{"buffer":0,"byteOffset":46128,"byteLength":1680,"target":34962,"byteStride":8},{"buffer":0,"byteOffset":47808,"byteLength":504,"target":34963}],"buffers":[{"byteLength":48312,"uri":"data:application/octet-stream;base64,"}],"accessors":[{"bufferView":0,"componentType":5126,"count":24,"max":[0.5,0.0625,0.5],"min":[-0.5,0,-0.5],"type":"VEC3"},{"bufferView":1,"componentType":5126,"count":24,"max":[0.9805806875228882,1,0.9805806875228882],"min":[-0.9805806875228882,-1,-0.9805806875228882],"type":"VEC3"},{"bufferView":2,"componentType":5126,"count":24,"max":[0.515625,0.515625],"min":[0,0],"type":"VEC2"},{"bufferView":3,"componentType":5123,"count":36,"max":[23],"min":[0],"type":"SCALAR"},{"bufferView":4,"componentType":5126,"count":60,"max":[0.2163861095905304,0.5,0.125],"min":[-0.2166265845298767,-0.26875001192092896,-0.25],"type":"VEC3"},{"bufferView":5,"componentType":5126,"count":60,"max":[0.8660253882408142,1,1],"min":[-0.8660253882408142,-1,-0.5],"type":"VEC3"},{"bufferView":6,"componentType":5126,"count":60,"max":[0.7109375,0.0859375],"min":[0.1640625,0.0703125],"type":"VEC2"},{"bufferView":7,"componentType":5123,"count":72,"max":[59],"min":[0],"type":"SCALAR"},{"bufferView":8,"componentType":5126,"count":270,"max":[0.05412658676505089,0.574999988079071,0.21250000596046448],"min":[-0.05412658676505089,-0.5625,-0.20000000298023224],"type":"VEC3"},{"bufferView":9,"componentType":5126,"count":270,"max":[1,1,1],"min":[-0.8660253882408142,-1,-1],"type":"VEC3"},{"bufferView":10,"componentType":5126,"count":270,"max":[0.7734375,0.7728750109672546],"min":[0,0],"type":"VEC2"},{"bufferView":11,"componentType":5123,"count":324,"max":[269],"min":[0],"type":"SCALAR"},{"bufferView":12,"componentType":5126,"count":210,"max":[0.05412658676505089,0.8125,0.03125],"min":[-0.37912657856941223,-0.125,-0.3438541293144226],"type":"VEC3"},{"bufferView":13,"componentType":5126,"count":210,"max":[0.877202033996582,1,1],"min":[-0.877202033996582,-1,-0.5906904935836792],"type":"VEC3"},{"bufferView":14,"componentType":5126,"count":210,"max":[0.9921875,0.2421875],"min":[0.0078125,0.1640625],"type":"VEC2"},{"bufferView":15,"componentType":5123,"count":252,"max":[209],"min":[0],"type":"SCALAR"},{"bufferView":16,"componentType":5126,"count":210,"max":[0.2166265845298767,0.9375,0.125],"min":[-0.2166265845298767,0,-0.2501041293144226],"type":"VEC3"},{"bufferView":17,"componentType":5126,"count":210,"max":[0.877202033996582,1,1],"min":[-0.877202033996582,-1,-0.5906904935836792],"type":"VEC3"},{"bufferView":18,"componentType":5126,"count":210,"max":[0.9921875,0.3046875],"min":[0.0078125,0.2265625],"type":"VEC2"},{"bufferView":19,"componentType":5123,"count":252,"max":[209],"min":[0],"type":"SCALAR"},{"bufferView":20,"componentType":5126,"count":210,"max":[0.2166265845298767,0.9375,0.125],"min":[-0.2166265845298767,0,-0.2501041293144226],"type":"VEC3"},{"bufferView":21,"componentType":5126,"count":210,"max":[0.877202033996582,1,1],"min":[-0.877202033996582,-1,-0.5906904935836792],"type":"VEC3"},{"bufferView":22,"componentType":5126,"count":210,"max":[0.9921875,0.3671875],"min":[0.0078125,0.2890625],"type":"VEC2"},{"bufferView":23,"componentType":5123,"count":252,"max":[209],"min":[0],"type":"SCALAR"},{"bufferView":24,"componentType":5126,"count":210,"max":[0.2166265845298767,0.9375,0.125],"min":[-0.2166265845298767,0,-0.2501041293144226],"type":"VEC3"},{"bufferView":25,"componentType":5126,"count":210,"max":[0.877202033996582,1,1],"min":[-0.877202033996582,-1,-0.5906904935836792],"type":"VEC3"},{"bufferView":26,"componentType":5126,"count":210,"max":[0.9921875,0.4296875],"min":[0.0078125,0.3515625],"type":"VEC2"},{"bufferView":27,"componentType":5123,"count":252,"max":[209],"min":[0],"type":"SCALAR"},{"bufferView":28,"componentType":5126,"count":210,"max":[0.2166265845298767,0.9375,0.125],"min":[-0.2166265845298767,0,-0.2501041293144226],"type":"VEC3"},{"bufferView":29,"componentType":5126,"count":210,"max":[0.877202033996582,1,1],"min":[-0.877202033996582,-1,-0.5906904935836792],"type":"VEC3"},{"bufferView":30,"componentType":5126,"count":210,"max":[0.9921875,0.0546875],"min":[0.0078125,0.0078125],"type":"VEC2"},{"bufferView":31,"componentType":5123,"count":252,"max":[209],"min":[0],"type":"SCALAR"}],"materials":[{"pbrMetallicRoughness":{"metallicFactor":0,"roughnessFactor":1,"baseColorTexture":{"index":0}},"alphaMode":"MASK","alphaCutoff":0.05,"doubleSided":true},{"pbrMetallicRoughness":{"metallicFactor":0,"roughnessFactor":1,"baseColorTexture":{"index":1}},"alphaMode":"MASK","alphaCutoff":0.05,"doubleSided":true},{"pbrMetallicRoughness":{"metallicFactor":0,"roughnessFactor":1,"baseColorTexture":{"index":2}},"alphaMode":"MASK","alphaCutoff":0.05,"doubleSided":true}],"textures":[{"sampler":0,"source":0,"name":"radio_tower_antenna_texture.png"},{"sampler":1,"source":1,"name":"radio_tower_texture.png"},{"sampler":2,"source":2,"name":"antenna_texture.png"}],"samplers":[{"magFilter":9728,"minFilter":9728,"wrapS":33071,"wrapT":33071},{"magFilter":9728,"minFilter":9728,"wrapS":33071,"wrapT":33071},{"magFilter":9728,"minFilter":9728,"wrapS":33071,"wrapT":33071}],"images":[{"mimeType":"image/png","uri":"data:image/png;base64,"},{"mimeType":"image/png","uri":"data:image/png;base64,"},{"mimeType":"image/png","uri":"data:image/png;base64,"}],"meshes":[{"primitives":[{"mode":4,"attributes":{"POSITION":0,"NORMAL":1,"TEXCOORD_0":2},"indices":3,"material":0}]},{"primitives":[{"mode":4,"attributes":{"POSITION":4,"NORMAL":5,"TEXCOORD_0":6},"indices":7,"material":1}]},{"primitives":[{"mode":4,"attributes":{"POSITION":8,"NORMAL":9,"TEXCOORD_0":10},"indices":11,"material":2}]},{"primitives":[{"mode":4,"attributes":{"POSITION":12,"NORMAL":13,"TEXCOORD_0":14},"indices":15,"material":1}]},{"primitives":[{"mode":4,"attributes":{"POSITION":16,"NORMAL":17,"TEXCOORD_0":18},"indices":19,"material":1}]},{"primitives":[{"mode":4,"attributes":{"POSITION":20,"NORMAL":21,"TEXCOORD_0":22},"indices":23,"material":1}]},{"primitives":[{"mode":4,"attributes":{"POSITION":24,"NORMAL":25,"TEXCOORD_0":26},"indices":27,"material":1}]},{"primitives":[{"mode":4,"attributes":{"POSITION":28,"NORMAL":29,"TEXCOORD_0":30},"indices":31,"material":1}]}]}