{"asset":{"version":"2.0","generator":"Blockbench 4.11.0 glTF exporter"},"scenes":[{"nodes":[2],"name":"blockbench_export"}],"scene":0,"nodes":[{"translation":[1,0.375,0],"name":"highrise","mesh":0},{"name":"root","children":[0]},{"children":[1]}],"bufferViews":[{"buffer":0,"byteOffset":0,"byteLength":14448,"target":34962,"byteStride":12},{"buffer":0,"byteOffset":14448,"byteLength":14448,"target":34962,"byteStride":12},{"buffer":0,"byteOffset":28896,"byteLength":9632,"target":34962,"byteStride":8},{"buffer":0,"byteOffset":38528,"byteLength":3588,"target":34963}],"buffers":[{"byteLength":42116,"uri":"data:application/octet-stream;base64,"}],"accessors":[{"bufferView":0,"componentType":5126,"count":1204,"max":[0.5062500238418579,1.25,1.5],"min":[-2.5,-0.375,-1.5],"type":"VEC3"},{"bufferView":1,"componentType":5126,"count":1204,"max":[1,1,1],"min":[-1,-1,-1],"type":"VEC3"},{"bufferView":2,"componentType":5126,"count":1204,"max":[0.5625,0.45703125],"min":[0,0],"type":"VEC2"},{"bufferView":3,"componentType":5123,"count":1794,"max":[1203],"min":[0],"type":"SCALAR"}],"materials":[{"pbrMetallicRoughness":{"metallicFactor":0,"roughnessFactor":1,"baseColorTexture":{"index":0}},"alphaMode":"MASK","alphaCutoff":0.05,"doubleSided":true}],"textures":[{"sampler":0,"source":0,"name":"texture"}],"samplers":[{"magFilter":9728,"minFilter":9728,"wrapS":33071,"wrapT":33071}],"images":[{"mimeType":"image/png","uri":"data:image/png;base64,"}],"meshes":[{"primitives":[{"mode":4,"attributes":{"POSITION":0,"NORMAL":1,"TEXCOORD_0":2},"indices":3,"material":0}]}]}