{"asset":{"version":"2.0","generator":"Blockbench 4.11.1 glTF exporter"},"scenes":[{"nodes":[7],"name":"blockbench_export"}],"scene":0,"nodes":[{"rotation":[-1.5743405682763574e-16,-0.3624380382837015,-0.9320078692827986,4.476624478423355e-18],"name":"upper_panel","mesh":0},{"translation":[0,0.375,0],"name":"upper_section","children":[0]},{"translation":[0,-0.46875,0],"name":"lower","mesh":1},{"translation":[0,0.5,0],"name":"lower_section","children":[1,2]},{"name":"baseplate","mesh":2},{"name":"base_section","children":[3,4]},{"name":"bone","children":[5]},{"children":[6]}],"bufferViews":[{"buffer":0,"byteOffset":0,"byteLength":3408,"target":34962,"byteStride":12},{"buffer":0,"byteOffset":3408,"byteLength":3408,"target":34962,"byteStride":12},{"buffer":0,"byteOffset":6816,"byteLength":2272,"target":34962,"byteStride":8},{"buffer":0,"byteOffset":9088,"byteLength":816,"target":34963},{"buffer":0,"byteOffset":9904,"byteLength":2136,"target":34962,"byteStride":12},{"buffer":0,"byteOffset":12040,"byteLength":2136,"target":34962,"byteStride":12},{"buffer":0,"byteOffset":14176,"byteLength":1424,"target":34962,"byteStride":8},{"buffer":0,"byteOffset":15600,"byteLength":516,"target":34963},{"buffer":0,"byteOffset":16116,"byteLength":672,"target":34962,"byteStride":12},{"buffer":0,"byteOffset":16788,"byteLength":672,"target":34962,"byteStride":12},{"buffer":0,"byteOffset":17460,"byteLength":448,"target":34962,"byteStride":8},{"buffer":0,"byteOffset":17908,"byteLength":168,"target":34963}],"buffers":[{"byteLength":18076,"uri":"data:application/octet-stream;base64,"}],"accessors":[{"bufferView":0,"componentType":5126,"count":284,"max":[0.40625,0.06875000149011612,0.40625],"min":[-0.40625,-0.375,-0.40625],"type":"VEC3"},{"bufferView":1,"componentType":5126,"count":284,"max":[1,1,1],"min":[-1,-0.9762960076332092,-1],"type":"VEC3"},{"bufferView":2,"componentType":5126,"count":284,"max":[0.5625,0.4375],"min":[0,0],"type":"VEC2"},{"bufferView":3,"componentType":5123,"count":408,"max":[283],"min":[0],"type":"SCALAR"},{"bufferView":4,"componentType":5126,"count":178,"max":[0.09375,0.9125000238418579,0.09375],"min":[-0.09375,0.42500001192092896,-0.09375],"type":"VEC3"},{"bufferView":5,"componentType":5126,"count":178,"max":[1,1,1],"min":[-1,-1,-1],"type":"VEC3"},{"bufferView":6,"componentType":5126,"count":178,"max":[0.875,0.9701971411705017],"min":[0,0],"type":"VEC2"},{"bufferView":7,"componentType":5123,"count":258,"max":[177],"min":[0],"type":"SCALAR"},{"bufferView":8,"componentType":5126,"count":56,"max":[0.5,0.46875,0.5],"min":[-0.5,0,-0.5],"type":"VEC3"},{"bufferView":9,"componentType":5126,"count":56,"max":[1,1,1],"min":[-1,-1,-1],"type":"VEC3"},{"bufferView":10,"componentType":5126,"count":56,"max":[0.6875,0.53125],"min":[0,0],"type":"VEC2"},{"bufferView":11,"componentType":5123,"count":84,"max":[55],"min":[0],"type":"SCALAR"}],"materials":[{"pbrMetallicRoughness":{"metallicFactor":0,"roughnessFactor":1,"baseColorTexture":{"index":0}},"alphaMode":"MASK","alphaCutoff":0.05,"doubleSided":true},{"pbrMetallicRoughness":{"metallicFactor":0,"roughnessFactor":1,"baseColorTexture":{"index":1}},"alphaMode":"MASK","alphaCutoff":0.05,"doubleSided":true},{"pbrMetallicRoughness":{"metallicFactor":0,"roughnessFactor":1,"baseColorTexture":{"index":2}},"alphaMode":"MASK","alphaCutoff":0.05,"doubleSided":true}],"textures":[{"sampler":0,"source":0,"name":"upper_texture"},{"sampler":1,"source":1,"name":"lower_texture"},{"sampler":2,"source":2,"name":"baseplate_texture"}],"samplers":[{"magFilter":9728,"minFilter":9728,"wrapS":33071,"wrapT":33071},{"magFilter":9728,"minFilter":9728,"wrapS":33071,"wrapT":33071},{"magFilter":9728,"minFilter":9728,"wrapS":33071,"wrapT":33071}],"images":[{"mimeType":"image/png","uri":"data:image/png;base64,"},{"mimeType":"image/png","uri":"data:image/png;base64,"},{"mimeType":"image/png","uri":"data:image/png;base64,"}],"meshes":[{"primitives":[{"mode":4,"attributes":{"POSITION":0,"NORMAL":1,"TEXCOORD_0":2},"indices":3,"material":0}]},{"primitives":[{"mode":4,"attributes":{"POSITION":4,"NORMAL":5,"TEXCOORD_0":6},"indices":7,"material":1}]},{"primitives":[{"mode":4,"attributes":{"POSITION":8,"NORMAL":9,"TEXCOORD_0":10},"indices":11,"material":2}]}]}